<?xml version="1.0" encoding="UTF-8"?>
<svg version="1.1" xmlns="http://www.w3.org/2000/svg" width="512" height="512">
<path d="M0 0 C3.42312122 2.91067792 6.73120503 5.91767991 10 9 C10.66515625 9.60070313 11.3303125 10.20140625 12.015625 10.8203125 C28.61060695 26.40340531 39.52722189 48.11423467 45 70 C45 70.99 45 71.98 45 73 C46.25343704 72.99111755 47.50687408 72.98223511 48.79829407 72.9730835 C60.64131358 72.8918103 72.48427612 72.83194471 84.32751179 72.79275131 C90.41548141 72.77192384 96.50322493 72.74369445 102.59106445 72.69824219 C108.47199396 72.65461215 114.3527067 72.63082653 120.23378563 72.62049103 C122.47155352 72.61313044 124.70931025 72.59875723 126.94698524 72.57707977 C142.25848519 72.43472007 154.20228292 72.36695596 165.76953125 83.56640625 C174.48662421 93.07735006 176.62564991 102.18936603 176.30078125 114.76953125 C175.71638598 125.5940708 170.87267069 132.78443826 163 140 C153.66185665 147.52975498 145.77502197 148.29812426 134.0625 148.125 C132.90169922 148.11597656 131.74089844 148.10695312 130.54492188 148.09765625 C127.69639892 148.07421162 124.84830922 148.04139522 122 148 C122.27424805 148.73025391 122.54849609 149.46050781 122.83105469 150.21289062 C123.37101074 151.66985352 123.37101074 151.66985352 123.921875 153.15625 C124.45699707 154.59194336 124.45699707 154.59194336 125.00292969 156.05664062 C128.55552004 166.54391518 130.57985055 182.26044835 127 193 C128.31613281 192.95359375 129.63226563 192.9071875 130.98828125 192.859375 C143.63106223 192.54047752 153.25603193 192.69075002 163.3125 201.1875 C171.30371276 208.92462014 176.13552237 216.76077931 176.38110352 228.10131836 C176.34627519 240.362283 174.21742798 248.69722956 165.43359375 257.76953125 C157.4792058 265.05998955 149.99626072 268.32075782 139.07910538 268.25726891 C138.30780238 268.26077498 137.53649937 268.26428105 136.74182355 268.26789337 C134.16002433 268.27718941 131.57845156 268.27228871 128.99664307 268.26742554 C127.12578007 268.2711627 125.25491863 268.27576449 123.38405967 268.28115618 C118.24477945 268.2933934 113.1055643 268.29312486 107.96627283 268.29076743 C102.42283785 268.29035945 96.87942378 268.30139665 91.33599854 268.31088257 C80.47596033 268.32749751 69.61594383 268.33299234 58.75589398 268.33410732 C49.92844349 268.33505756 41.10100016 268.33916665 32.27355194 268.34550858 C11.31979049 268.36025611 -9.63396709 268.37255816 -30.58773422 268.37151146 C-31.25771327 268.3714803 -31.92769231 268.37144914 -32.61797375 268.37141704 C-36.01362375 268.37125083 -39.40927374 268.37105275 -42.80492374 268.37084763 C-43.4792988 268.37080774 -44.15367386 268.37076785 -44.84848453 268.37072675 C-46.21223522 268.37064587 -47.5759859 268.37056228 -48.93973659 268.37047596 C-70.15483879 268.36925061 -91.36987704 268.38426142 -112.58496094 268.41162109 C-136.42623186 268.44235499 -160.26746111 268.45952746 -184.10875726 268.45769465 C-196.72986013 268.45703057 -209.35089089 268.4625309 -221.97197723 268.48405075 C-232.71773766 268.50225557 -243.46339328 268.50661557 -254.20916244 268.4930319 C-259.69101853 268.4864988 -265.1726735 268.48639765 -270.6545105 268.5037384 C-275.67574416 268.51945867 -280.69661708 268.51661596 -285.71784189 268.49917014 C-287.53141152 268.49609797 -289.34500799 268.49974079 -291.15854594 268.51089029 C-304.93963941 268.58998387 -315.41851297 267.45548585 -325.76953125 257.43359375 C-334.48662421 247.92264994 -336.62564991 238.81063397 -336.30078125 226.23046875 C-335.71638598 215.4059292 -330.87267069 208.21556174 -323 201 C-314.66721905 194.28091285 -307.09986842 192.67775624 -296.5625 192.875 C-295.64017578 192.88402344 -294.71785156 192.89304688 -293.76757812 192.90234375 C-291.51144191 192.9257234 -289.25586316 192.95849084 -287 193 C-287.33 192.01 -287.66 191.02 -288 190 C-289.41791356 162.62336128 -282.02446141 139.59121954 -263.8125 119.0078125 C-251.06625727 105.08940167 -231.74046158 95.24617339 -213 93 C-211.33353276 92.97421781 -209.66635531 92.96778575 -208 93 C-207.92523438 91.94425781 -207.85046875 90.88851562 -207.7734375 89.80078125 C-206.44722435 73.92800821 -202.58714729 58.9324675 -195.9375 44.4375 C-195.62151855 43.74132568 -195.30553711 43.04515137 -194.97998047 42.32788086 C-192.96081928 38.18037267 -191.0102596 35.34180092 -187 33 C-185.99839844 33.0103125 -184.99679688 33.020625 -183.96484375 33.03125 C-180.87810685 33.30428779 -180.87810685 33.30428779 -178.62890625 31.09375 C-174.60166095 26.42407264 -174.60166095 26.42407264 -172.8203125 20.73046875 C-173.16530067 18.8110133 -173.58035824 16.90452799 -174 15 C-168.8553024 1.28080641 -147.53580583 -10.00217111 -135 -16 C-91.12661764 -35.59364673 -37.64958917 -30.78268297 0 0 Z " fill="#010101" transform="translate(336,27)"/>
<path d="M0 0 C1.94324661 -0.01073296 1.94324661 -0.01073296 3.92575073 -0.02168274 C5.35943579 -0.02452276 6.79312112 -0.02723451 8.22680664 -0.02983093 C9.73813024 -0.03609796 11.24945231 -0.04274497 12.76077271 -0.04974365 C17.71949192 -0.07074817 22.67821134 -0.08113881 27.63696289 -0.09111023 C29.34439103 -0.09515835 31.05181901 -0.09927529 32.75924683 -0.10346031 C40.77682097 -0.12249961 48.79438595 -0.13673645 56.81197834 -0.14507228 C66.0704088 -0.15485734 75.32860099 -0.18121504 84.58694744 -0.22157317 C91.74287211 -0.25169838 98.89872829 -0.2665375 106.05471516 -0.26985329 C110.32946159 -0.2722068 114.60395309 -0.28120686 118.87863159 -0.30631447 C122.89734027 -0.32953921 126.91562508 -0.33385129 130.93438339 -0.32355309 C132.40982343 -0.32305633 133.88528396 -0.32941778 135.36066055 -0.34310913 C137.37333856 -0.36074332 139.38619944 -0.35136431 141.39892578 -0.34057617 C142.52569229 -0.34296453 143.6524588 -0.34535288 144.81336975 -0.34781361 C148.36155761 0.26072477 149.56982052 1.28723748 151.69946289 4.14717102 C151.69946289 5.13717102 151.69946289 6.12717102 151.69946289 7.14717102 C156.31946289 7.14717102 160.93946289 7.14717102 165.69946289 7.14717102 C166.02946289 5.82717102 166.35946289 4.50717102 166.69946289 3.14717102 C167.78686523 1.42242432 167.78686523 1.42242432 169.69946289 0.14717102 C172.31194554 -0.15409689 174.68734654 -0.27301386 177.30102539 -0.25688171 C178.07383347 -0.26374496 178.84664154 -0.27060822 179.64286804 -0.27767944 C182.20358567 -0.29601049 184.76369355 -0.29209762 187.32446289 -0.28642273 C189.1098653 -0.29098494 190.89526596 -0.29629063 192.68066406 -0.30230713 C196.43000396 -0.31125313 200.17913111 -0.30880224 203.9284668 -0.2988739 C208.70865508 -0.28744361 213.48809811 -0.30749608 218.26818848 -0.33679104 C221.96080117 -0.35524735 225.65323892 -0.35484086 229.34588623 -0.34915352 C231.10635414 -0.34900112 232.86683454 -0.35497717 234.6272583 -0.36744499 C248.48989403 -0.45171284 259.05714315 0.63278672 269.46899414 10.71357727 C278.1860871 20.22452108 280.3251128 29.33653705 280.00024414 41.91670227 C279.41584887 52.74124182 274.57213358 59.93160928 266.69946289 67.14717102 C257.44246299 74.61149648 249.36364485 75.42519174 237.76196289 75.64717102 C223.3203461 75.74670396 223.3203461 75.74670396 210.69946289 82.14717102 C205.19390963 88.26445243 204.18847554 92.7202261 204.31665039 100.87763977 C205.02801999 106.95331682 207.88635551 110.46673004 212.26196289 114.52217102 C218.93630626 118.97173327 225.17575275 119.29449162 233.10058594 119.28901672 C233.92259995 119.29249115 234.74461395 119.29596558 235.59153748 119.29954529 C237.36917642 119.30687146 239.14682433 119.31223348 240.92447472 119.31583595 C243.7466649 119.32304288 246.56868535 119.3387416 249.39082336 119.35717773 C257.41254322 119.40944299 265.43416826 119.45757847 273.45605469 119.47309875 C278.37150114 119.48322968 283.28651637 119.51268123 288.20179176 119.55441856 C290.06548603 119.566659 291.92924136 119.57186266 293.79297447 119.56962013 C307.95212797 119.5567769 318.81787725 120.40112865 329.46899414 130.71357727 C338.1860871 140.22452108 340.3251128 149.33653705 340.00024414 161.91670227 C339.41584887 172.74124182 334.57213358 179.93160928 326.69946289 187.14717102 C318.96161842 193.38653476 311.90129833 195.45189362 302.11787415 195.42132568 C301.27914818 195.42656236 300.4404222 195.43179904 299.5762803 195.43719441 C296.77915749 195.45213912 293.98221851 195.45289834 291.18505859 195.4535675 C289.17396234 195.46119277 287.16286899 195.4696209 285.15177917 195.47879028 C279.69701081 195.50070739 274.2422985 195.50953059 268.78749108 195.51461673 C265.37601768 195.51826394 261.96455888 195.52450595 258.55309105 195.53161812 C246.64134453 195.55610405 234.72964149 195.56916243 222.81787109 195.57270813 C211.73146054 195.57634152 200.64532715 195.6062252 189.55900127 195.64811271 C180.02753166 195.6828572 170.49615372 195.6982573 160.96462125 195.69895416 C155.27784042 195.69974563 149.59134199 195.70842431 143.90462685 195.73695183 C138.55205752 195.76320317 133.20000329 195.76529807 127.84739876 195.74929619 C125.8899396 195.74748726 123.93245035 195.75412177 121.97505569 195.7701149 C107.7296295 195.87935331 96.35139217 194.64451671 85.60180664 184.24482727 C78.91334493 176.86966517 75.85541056 168.55353676 75.32446289 158.64717102 C74.83906432 152.056952 72.71671902 146.34456185 68.12915039 141.48310852 C61.61345294 136.30085613 53.2355337 135.84455825 45.21231079 135.89561462 C44.40792238 135.89264449 43.60353396 135.88967435 42.77477014 135.8866142 C40.10587567 135.87903572 37.4372053 135.88544274 34.76831055 135.89179993 C32.8439672 135.88904714 30.919625 135.88536549 28.99528503 135.88082886 C24.86367887 135.87274063 20.73212675 135.87054241 16.60051346 135.87277603 C10.06056581 135.87561815 3.5207254 135.86122373 -3.01919556 135.84379578 C-21.61198322 135.79685421 -40.2047631 135.77283045 -58.79760742 135.76631165 C-69.07583117 135.762556 -79.35393302 135.74448816 -89.63210452 135.71121728 C-96.1262787 135.69105249 -102.62013745 135.68860872 -109.11433005 135.69949746 C-113.1629327 135.70211304 -117.21135337 135.68805956 -121.25990868 135.66941643 C-123.12908068 135.664115 -124.99828664 135.66555596 -126.86744499 135.67445183 C-140.86601791 135.73567258 -151.54472696 134.77143713 -162.07006836 124.58076477 C-170.78716132 115.06982096 -172.92618702 105.95780499 -172.60131836 93.37763977 C-172.01692309 82.55310022 -167.17320779 75.36273276 -159.30053711 68.14717102 C-151.5717187 61.91508539 -144.5105727 59.84754196 -134.73828125 59.86006165 C-133.91130234 59.85322861 -133.08432343 59.84639557 -132.23228455 59.83935547 C-130.44758352 59.82583077 -128.66284445 59.81673701 -126.87809944 59.81164551 C-124.04819094 59.80331056 -121.21859808 59.7827634 -118.38877869 59.7591095 C-112.38024538 59.71102856 -106.37168045 59.67800426 -100.36303711 59.64717102 C-93.40013623 59.61141818 -86.43739085 59.56939234 -79.47463799 59.51123047 C-76.69621028 59.49126605 -73.91790377 59.48286397 -71.13941956 59.47492981 C-69.42367114 59.46194857 -67.7079267 59.44842697 -65.9921875 59.4342804 C-64.84558151 59.43575325 -64.84558151 59.43575325 -63.67581177 59.43725586 C-56.00001577 59.34960473 -49.46438926 58.05023523 -43.30053711 53.14717102 C-39.63478673 49.07411504 -37.26617512 45.42406342 -36.62475586 39.95185852 C-36.52211426 39.15827942 -36.41947266 38.36470032 -36.3137207 37.54707336 C-36.15250732 36.2972467 -36.15250732 36.2972467 -35.98803711 35.02217102 C-34.16789295 22.6222929 -30.3183659 14.15827385 -20.30053711 6.14717102 C-13.56092267 2.00655746 -7.89900407 0.02995851 0 0 Z " fill="#BDC2D1" transform="translate(172.300537109375,316.8528289794922)"/>
<path d="M0 0 C4.35807186 3.53765171 8.50401677 7.262956 12.59375 11.10546875 C13.18542969 11.62109375 13.77710938 12.13671875 14.38671875 12.66796875 C27.50911065 24.6370863 36.91664242 43.15095376 41.59375 60.10546875 C41.59375 61.09546875 41.59375 62.08546875 41.59375 63.10546875 C39.82967804 63.10760628 39.82967804 63.10760628 38.02996826 63.10978699 C26.9081131 63.12650817 15.78662143 63.16943797 4.66495895 63.23755932 C-1.05186384 63.27174583 -6.76842174 63.29692635 -12.48535156 63.30102539 C-18.00991229 63.30532618 -23.53387632 63.33393654 -29.05825043 63.37890053 C-31.15835841 63.39181871 -33.25853801 63.39620352 -35.35868073 63.39162254 C-50.91021505 63.36561836 -62.54268349 64.32035082 -74.27734375 75.640625 C-80.35412429 82.67631036 -83.21688392 91.22995891 -83.71875 100.41796875 C-84.29935118 107.34711075 -86.24668748 113.37826742 -91.6328125 118.02734375 C-97.0733349 121.74887373 -101.07209645 123.22876657 -107.70678711 123.23144531 C-109.66043434 123.23715546 -109.66043434 123.23715546 -111.65354919 123.24298096 C-112.35025663 123.24317482 -113.04696407 123.24336868 -113.76478386 123.24356842 C-116.71078038 123.24699869 -119.65655915 123.26839107 -122.60247898 123.28879929 C-128.0817746 123.32668422 -133.56084153 123.35809922 -139.0402832 123.35595703 C-142.85663752 123.35516306 -146.67219781 123.37882767 -150.48834419 123.41783905 C-151.93254576 123.42820369 -153.37684008 123.42989445 -154.82105827 123.42218781 C-168.02240062 123.358834 -178.51526119 126.1827911 -188.20703125 135.5 C-195.25356559 143.8482032 -197.88330263 153.05357432 -197.73828125 163.78515625 C-196.6621862 174.54610675 -191.46250396 183.08408318 -183.40625 190.10546875 C-176.11918951 195.19560656 -169.01226765 197.41050762 -160.12127686 197.36616516 C-158.89297948 197.37190348 -158.89297948 197.37190348 -157.63986802 197.37775773 C-154.90405188 197.3880521 -152.16844702 197.38410233 -149.43261719 197.38012695 C-147.467685 197.38447548 -145.50275451 197.3896591 -143.53782654 197.39561462 C-138.20501673 197.40900283 -132.8722778 197.40958333 -127.53945446 197.40705132 C-123.08389664 197.40598118 -118.62835314 197.41086626 -114.1727984 197.41565675 C-103.65734298 197.42675199 -93.14192328 197.42718967 -82.62646484 197.42114258 C-71.78947361 197.4151062 -60.95261232 197.42740527 -50.11564326 197.44871265 C-40.80333275 197.46634701 -31.49106352 197.47232698 -22.17873693 197.4690749 C-16.62063518 197.46726434 -11.06262607 197.46987535 -5.50453949 197.48378944 C-0.27437691 197.49639245 4.95558375 197.49440021 10.18574333 197.48137856 C12.10049191 197.47901836 14.0152548 197.48172739 15.92998695 197.49000168 C30.20996565 197.54723878 41.30139369 196.81533222 52.59375 187.10546875 C59.9045676 179.68483201 62.43322897 170.62248351 63.46875 160.48046875 C64.42050855 152.53570462 66.52791635 147.79230213 72.45068359 142.42163086 C80.88256628 136.43265672 89.84212446 137.4312341 99.71875 137.73046875 C101.45568275 137.76061708 103.19266612 137.78798427 104.9296875 137.8125 C109.15230831 137.87808702 113.37246135 137.98133192 117.59375 138.10546875 C123.24732799 148.43786991 125.07410439 157.87179207 124.84375 169.60546875 C124.83859375 170.65605469 124.8334375 171.70664063 124.828125 172.7890625 C124.76796772 178.87246765 124.36864696 184.73588177 123.41308594 190.74804688 C123.40314718 193.24555814 123.40314718 193.24555814 125.19165039 195.38671875 C128.25722543 197.5801986 130.04487371 197.58966458 133.79296875 197.57421875 C135.00275391 197.58839844 136.21253906 197.60257813 137.45898438 197.6171875 C139.98763039 197.60943488 142.51627623 197.60162331 145.04492188 197.59375 C153.60806803 197.6935853 160.2342247 198.44463198 166.93359375 204.0703125 C171.9010412 210.20371339 174.1129358 214.46452186 173.8984375 222.484375 C173.01985989 230.04239523 169.45451518 234.84412528 163.7890625 239.6953125 C158.76403949 242.92312977 153.73390441 243.39705929 147.89684486 243.36273766 C147.13761553 243.36624373 146.3783862 243.3697498 145.59614992 243.37336212 C143.04942927 243.38267371 140.50293742 243.37775345 137.95620728 243.37289429 C136.11294283 243.37663066 134.26967996 243.38123213 132.42641962 243.38662493 C127.35889899 243.39887178 122.29144429 243.39859248 117.22391224 243.39623618 C111.75959058 243.39582845 106.29529018 243.40686297 100.83097839 243.41635132 C90.12488018 243.4329711 79.41880398 243.43846129 68.71269394 243.43957607 C60.01200533 243.440526 51.31132398 243.44463353 42.61063766 243.45097733 C17.95073362 243.46859173 -6.70915526 243.47782793 -31.36906533 243.47631638 C-32.03366574 243.47627649 -32.69826616 243.4762366 -33.38300597 243.4761955 C-34.72698951 243.47611462 -36.07097304 243.47603103 -37.41495657 243.47594471 C-58.32777228 243.47471905 -79.24052315 243.48973544 -100.15332031 243.51708984 C-123.6488277 243.54780983 -147.1443028 243.56499708 -170.63983309 243.5631634 C-183.08032655 243.56249889 -195.52074688 243.56801781 -207.9612236 243.5895195 C-218.55191983 243.60770661 -229.14250977 243.61209888 -239.73321484 243.59850065 C-245.13773319 243.5919588 -250.54204747 243.59189784 -255.94654655 243.60920715 C-260.89364831 243.62488877 -265.84038335 243.6221245 -270.7874759 243.60463889 C-272.57746904 243.60155818 -274.36748922 243.60524153 -276.15745048 243.61635904 C-278.59129813 243.63047502 -281.02385851 243.61989889 -283.45766258 243.60324669 C-284.49927941 243.61815123 -284.49927941 243.61815123 -285.561939 243.63335687 C-291.87552741 243.54207369 -296.91994811 241.24524773 -301.6484375 237.17578125 C-306.91308479 230.90354596 -308.93368552 225.87905163 -308.7109375 217.625 C-307.84000449 210.42305394 -303.85547555 206.12568145 -298.50390625 201.55078125 C-294.00112779 198.4483082 -290.13182681 197.85979334 -284.71484375 197.83203125 C-283.44060547 197.81140625 -282.16636719 197.79078125 -280.85351562 197.76953125 C-278.84342838 197.74689901 -276.83369538 197.73043959 -274.82348633 197.72460938 C-272.87044631 197.71507886 -270.91758265 197.68012548 -268.96484375 197.64453125 C-267.80267334 197.63631348 -266.64050293 197.6280957 -265.44311523 197.61962891 C-261.78556508 197.00038294 -260.58646879 196.06511658 -258.40625 193.10546875 C-258.12425668 189.94714362 -258.09031204 187.29246211 -258.90869141 184.21777344 C-262.8370153 167.54070852 -259.15369928 149.47634842 -251.15625 134.73046875 C-247.51352518 128.91627082 -243.23644941 123.95965922 -238.40625 119.10546875 C-237.66890625 118.33332031 -236.9315625 117.56117188 -236.171875 116.765625 C-223.50480866 104.3323468 -205.66086409 98.04550802 -188.1484375 97.28125 C-185.75398335 97.12775935 -183.69928778 96.78021432 -181.40625 96.10546875 C-180.34881219 92.82999066 -180.26750754 89.638466 -180.16723633 86.21801758 C-179.61468815 68.92381026 -175.19928038 52.83630223 -167.03125 37.54296875 C-165.35078388 33.98813657 -164.86642982 31.97418001 -165.40625 28.10546875 C-166.06625 27.11546875 -166.72625 26.12546875 -167.40625 25.10546875 C-166.89202809 19.93111079 -163.25946243 15.36809535 -159.40625 12.10546875 C-156.96941605 11.97904982 -155.02981622 12.46674948 -152.65625 13 C-149.60090443 13.14321932 -148.70370069 12.20015173 -146.46875 10.16796875 C-145.10792907 8.8204892 -143.75404422 7.46597801 -142.40625 6.10546875 C-103.01677479 -28.58810817 -42.23243781 -32.10907404 0 0 Z " fill="#EAEEF5" transform="translate(323.40625,36.89453125)"/>
<path d="M0 0 C1.27813506 -0.00679667 1.27813506 -0.00679667 2.58209103 -0.01373065 C5.43622684 -0.02638703 8.29017213 -0.02475347 11.14433289 -0.02310181 C13.19117987 -0.02908629 15.23802459 -0.03589166 17.28486633 -0.04345703 C22.8448595 -0.06113268 28.40479111 -0.06581309 33.96480966 -0.0670886 C38.60690626 -0.06898777 43.24898852 -0.07634555 47.8910796 -0.08343279 C58.8441571 -0.09972043 69.79720171 -0.10460142 80.75028992 -0.10317993 C92.0468713 -0.1019785 103.34326162 -0.12307987 114.63979465 -0.15466726 C124.34016166 -0.18082433 134.04046626 -0.19154746 143.74086827 -0.19026911 C149.5336972 -0.1897593 155.32635637 -0.19545337 161.11915016 -0.21662521 C166.5684788 -0.23599777 172.01747557 -0.23613859 177.46681595 -0.22159195 C179.46464841 -0.21950152 181.46250159 -0.22421864 183.46029854 -0.23631287 C186.1923457 -0.25177829 188.9232504 -0.2424487 191.65527344 -0.22705078 C192.4417683 -0.23733791 193.22826316 -0.24762503 194.03859121 -0.25822389 C200.6289375 -0.176408 205.7892794 1.8761313 210.76029968 6.23226929 C215.82148909 12.34686414 218.0384286 16.58420629 217.82279968 24.64633179 C216.93886699 32.25041943 213.35878464 37.02765526 207.61576843 41.85726929 C202.91881393 45.01481226 198.93118813 45.52238295 193.31620789 45.55453491 C192.60977646 45.56136795 191.90334503 45.56820099 191.17550659 45.57524109 C189.64724193 45.58878803 188.11893247 45.59786763 186.59061623 45.60295105 C184.16355507 45.61127964 181.73686312 45.63182409 179.30990601 45.65548706 C174.15019671 45.70362498 168.99044995 45.73657431 163.83061218 45.76742554 C157.86484499 45.80322878 151.89925718 45.84542429 145.93366051 45.90336609 C143.55751413 45.9232478 141.18150952 45.93171797 138.80529785 45.93966675 C124.97534093 46.03632419 114.22493554 47.26363761 103.63139343 57.00180054 C97.33471853 63.91704048 95.07557015 71.06129639 94.14311218 80.20492554 C93.03811591 88.83176117 91.62584083 95.31087058 84.45561218 100.86508179 C78.8811928 104.5437887 74.32826654 105.41621389 67.69433594 105.41459656 C66.88887382 105.41827325 66.08341171 105.42194993 65.25354165 105.42573804 C62.54525733 105.43678135 59.83701136 105.44061982 57.12870789 105.44442749 C55.19053017 105.45069168 53.25235366 105.45733844 51.31417847 105.46434021 C46.04126403 105.48175453 40.76835867 105.49230328 35.4954226 105.50054574 C32.20126389 105.50569527 28.907108 105.51177104 25.61295128 105.51805687 C15.30691519 105.53711065 5.00088628 105.55134107 -5.30516404 105.55966884 C-17.2027346 105.56944121 -29.1001191 105.59576006 -40.9976241 105.63616973 C-50.19263959 105.6663289 -59.38760175 105.68113755 -68.58266574 105.68444985 C-74.07484456 105.68680065 -79.56682466 105.69576506 -85.05895042 105.72091103 C-90.22753741 105.744193 -95.39579486 105.74842437 -100.5644207 105.73814964 C-102.45905402 105.7376542 -104.35370356 105.74397718 -106.2482872 105.75770569 C-108.8403159 105.77543356 -111.4311631 105.76831441 -114.02319336 105.75517273 C-114.76825203 105.76614198 -115.5133107 105.77711122 -116.28094691 105.78841287 C-122.56550635 105.71178904 -127.65382693 103.65099749 -132.47016907 99.59164429 C-137.46349754 93.41994921 -140.1271107 87.81380962 -139.82173157 79.75180054 C-138.83930611 72.56993171 -134.94331361 68.29806787 -129.57954407 63.71273804 C-125.14762518 60.65908815 -121.33150926 60.01628605 -115.99848938 59.9961853 C-114.70654663 59.98599869 -113.41460388 59.97581207 -112.08351135 59.96531677 C-111.39773262 59.96437578 -110.71195389 59.96343479 -110.00539398 59.96246529 C-107.84322196 59.95878189 -105.68150063 59.94200018 -103.51942444 59.92170715 C-97.37451099 59.86649733 -91.22953109 59.83570971 -85.08442688 59.81112671 C-81.31782381 59.79515518 -77.55153962 59.7648346 -73.78510284 59.72636223 C-72.35795759 59.71479347 -70.93075507 59.7087826 -69.50356293 59.70868111 C-61.64133723 59.70791952 -54.73386846 59.48732715 -47.48188782 56.26742554 C-46.61177063 55.89101929 -45.74165344 55.51461304 -44.84516907 55.12680054 C-36.23962765 50.47161242 -30.63267696 43.58649035 -27.48188782 34.26742554 C-27.07923349 31.58759778 -26.74070746 28.95946351 -26.48188782 26.26742554 C-25.63829296 17.58538628 -23.56587898 10.7633042 -16.98188782 4.76742554 C-11.72541071 0.50273657 -6.60541083 -0.02579254 0 0 Z " fill="#BDC2D1" transform="translate(279.4818878173828,114.73257446289063)"/>
<path d="M0 0 C1.94324661 -0.01073296 1.94324661 -0.01073296 3.92575073 -0.02168274 C5.35943579 -0.02452276 6.79312112 -0.02723451 8.22680664 -0.02983093 C9.73813024 -0.03609796 11.24945231 -0.04274497 12.76077271 -0.04974365 C17.71949192 -0.07074817 22.67821134 -0.08113881 27.63696289 -0.09111023 C29.34439103 -0.09515835 31.05181901 -0.09927529 32.75924683 -0.10346031 C40.77682097 -0.12249961 48.79438595 -0.13673645 56.81197834 -0.14507228 C66.0704088 -0.15485734 75.32860099 -0.18121504 84.58694744 -0.22157317 C91.74287211 -0.25169838 98.89872829 -0.2665375 106.05471516 -0.26985329 C110.32946159 -0.2722068 114.60395309 -0.28120686 118.87863159 -0.30631447 C122.89734027 -0.32953921 126.91562508 -0.33385129 130.93438339 -0.32355309 C132.40982343 -0.32305633 133.88528396 -0.32941778 135.36066055 -0.34310913 C137.37333856 -0.36074332 139.38619944 -0.35136431 141.39892578 -0.34057617 C142.52569229 -0.34296453 143.6524588 -0.34535288 144.81336975 -0.34781361 C148.37305672 0.26269695 149.5857038 1.25526928 151.69946289 4.14717102 C151.63646807 7.737876 151.4779776 10.13171705 149.26196289 13.02217102 C146.03900759 15.34269884 143.79329409 15.27391712 139.85617065 15.2784729 C137.98882515 15.28448517 137.98882515 15.28448517 136.08375549 15.2906189 C134.69638059 15.29014376 133.30900571 15.28960764 131.92163086 15.28901672 C130.46635329 15.29204757 129.01107668 15.29556881 127.55580139 15.29954529 C124.41664397 15.3074423 121.27749796 15.3125823 118.13833237 15.31583595 C113.17080962 15.32174272 108.20335865 15.33828131 103.23587036 15.35717773 C101.53532986 15.3635155 99.83478932 15.36984112 98.13424873 15.3761549 C97.28246552 15.37932071 96.4306823 15.38248652 95.55308747 15.38574827 C83.98633227 15.42781765 72.41960978 15.46078349 60.8527832 15.47309875 C53.05401378 15.48148753 45.25542137 15.50401113 37.4567405 15.54245442 C33.33054402 15.56219295 29.20461203 15.57462716 25.07836533 15.56962013 C21.1925607 15.56496262 17.30725647 15.57883867 13.42155266 15.60663223 C11.99942734 15.61352641 10.57725008 15.61368969 9.15512657 15.60643196 C0.25343967 15.56561026 -6.35100439 15.87604916 -13.32397461 21.89326477 C-13.76999023 22.45142883 -14.21600586 23.0095929 -14.67553711 23.58467102 C-15.36776367 24.41804993 -15.36776367 24.41804993 -16.07397461 25.26826477 C-18.99703013 29.74593899 -19.60909233 33.9431712 -20.11303711 39.20967102 C-21.48843739 50.63080483 -24.96852005 59.07958151 -33.46459961 67.01435852 C-38.01845371 70.43915789 -42.91737236 72.38555699 -48.30053711 74.14717102 C-49.78553711 74.64217102 -49.78553711 74.64217102 -51.30053711 75.14717102 C-54.10302222 75.24700825 -56.88138443 75.29084872 -59.68408203 75.28901672 C-60.96756531 75.29422836 -60.96756531 75.29422836 -62.27697754 75.29954529 C-64.13652585 75.30689972 -65.99608293 75.31224677 -67.85564232 75.31583595 C-70.80278498 75.32300525 -73.74976152 75.33867646 -76.69685364 75.35717773 C-85.07685027 75.40961759 -93.45675696 75.45759848 -101.83691406 75.47309875 C-106.96284857 75.48320155 -112.08836648 75.51258659 -117.21413612 75.55441856 C-119.16404374 75.56670293 -121.11401028 75.57185452 -123.06395531 75.56962013 C-125.79975917 75.5672572 -128.5343765 75.58950929 -131.27001953 75.61714172 C-132.06875992 75.61054031 -132.86750031 75.6039389 -133.69044495 75.59713745 C-140.18712166 75.70434591 -145.37514743 77.62275174 -150.32397461 81.89326477 C-154.95339644 87.68673197 -156.79929987 92.00490204 -156.60913086 99.52217102 C-155.77630016 106.60650308 -152.63868852 111.50983657 -147.17944336 115.95576477 C-142.29437407 119.05336588 -137.84920567 119.43531154 -132.17378235 119.40545654 C-130.95289194 119.4109701 -130.95289194 119.4109701 -129.70733708 119.41659504 C-126.98223633 119.42656843 -124.2573399 119.4224255 -121.53222656 119.41841125 C-119.57729373 119.42279879 -117.62236277 119.42810105 -115.66743469 119.43424988 C-111.45772979 119.44575057 -107.24807523 119.45120937 -103.03835487 119.45213127 C-96.37718252 119.45407238 -89.71611415 119.4721289 -83.05497742 119.4928894 C-66.50606134 119.54207665 -49.95711695 119.57294013 -33.40814209 119.5941925 C-20.55359903 119.61072754 -7.69914494 119.63358291 5.15533859 119.67721325 C11.77183294 119.69895704 18.38815815 119.70705041 25.00468576 119.70482051 C29.12969497 119.70649174 33.25459457 119.72056828 37.37956429 119.73803329 C39.28624039 119.74361489 41.19293939 119.74413461 43.099617 119.73909569 C58.37144232 119.70298112 69.92812686 120.85811123 81.51977539 131.87763977 C87.85640494 138.83519533 90.13383717 145.86950571 91.07446289 155.08467102 C92.18057277 163.66523627 93.60849353 169.6903544 100.32089901 175.56663418 C108.32686196 180.93084475 117.71560473 179.8398535 126.95361328 179.77827454 C128.91238553 179.78341753 130.87115315 179.79070166 132.82991028 179.79995728 C138.13157355 179.81842976 143.43273219 179.80555925 148.73437428 179.78586698 C154.29064953 179.76944727 159.84689366 179.77829789 165.40318298 179.78338623 C174.73159825 179.78790308 184.05981273 179.77206161 193.38818359 179.74409485 C204.16455859 179.71203552 214.9405717 179.71206374 225.71697241 179.72930962 C236.09619107 179.74518623 246.47527739 179.73843441 256.85449028 179.7213726 C261.26620455 179.71451001 265.67781248 179.71552644 270.08952522 179.72291756 C275.28616144 179.73059204 280.48238693 179.71841603 285.67895317 179.69106865 C287.58324337 179.68419634 289.48757201 179.68407444 291.39186096 179.69128418 C293.99676713 179.70000836 296.60041423 179.6839735 299.20521545 179.66183472 C300.32833723 179.67419587 300.32833723 179.67419587 301.47414833 179.68680674 C307.78752527 179.58816095 312.89028955 177.52249519 317.72290039 173.43623352 C322.54630518 167.49759063 324.20402027 162.34777187 324.00805664 154.67060852 C323.18377807 147.93030529 319.67474505 143.60691815 314.57836914 139.37373352 C309.56719334 136.10240462 304.91371409 135.86624686 299.06054688 135.90766907 C298.2012709 135.90565491 297.34199493 135.90364075 296.4566803 135.90156555 C294.59444437 135.89802636 292.7321964 135.89877934 290.86996269 135.90334129 C287.91309237 135.90895136 284.95661193 135.89974607 281.99977112 135.88613892 C273.59390584 135.84909484 265.18817125 135.83042299 256.78222656 135.8417511 C251.63449107 135.84763576 246.48730191 135.82917543 241.33967781 135.7958622 C239.38747752 135.78795703 237.43521691 135.78911818 235.48303032 135.7998867 C221.58676183 135.87320234 209.91650966 135.05960641 199.37524414 124.88935852 C198.82223633 124.31443665 198.26922852 123.73951477 197.69946289 123.14717102 C196.79196289 122.21904602 195.88446289 121.29092102 194.94946289 120.33467102 C188.48521352 111.17698441 186.70825991 101.16433516 187.69946289 90.14717102 C189.82714518 82.0657948 193.72533012 75.90601973 199.69946289 70.14717102 C200.58633789 69.26029602 201.47321289 68.37342102 202.38696289 67.45967102 C211.58054013 60.32328235 221.71215314 59.47834189 232.94946289 59.58467102 C246.34012255 59.80394155 246.34012255 59.80394155 257.72290039 53.43623352 C262.54630518 47.49759063 264.20402027 42.34777187 264.00805664 34.67060852 C263.18377807 27.93030529 259.67474505 23.60691815 254.57836914 19.37373352 C249.89774531 16.31819115 245.60752616 15.85931417 240.12695312 15.89179993 C239.38162323 15.88817947 238.63629333 15.88455902 237.86837769 15.88082886 C236.2565934 15.87395653 234.64478596 15.87142535 233.03298759 15.87277603 C230.48155408 15.87374357 227.93053916 15.86077383 225.37916565 15.84379578 C218.12764678 15.79758156 210.87617288 15.77290465 203.62451172 15.76631165 C199.18357582 15.76130106 194.74308052 15.73707992 190.30229378 15.70098495 C188.61143703 15.6911814 186.92051973 15.68885806 185.22964287 15.69415665 C182.8668072 15.70121645 180.5052892 15.68397109 178.14257812 15.66133118 C177.44480759 15.66950363 176.74703705 15.67767609 176.02812195 15.68609619 C172.7202353 15.62966899 170.96765011 15.34957988 168.29676819 13.33378601 C166.03875434 10.24270071 165.69946289 7.94885521 165.69946289 4.14717102 C167.2172699 1.96076965 167.2172699 1.96076965 169.69946289 0.14717102 C172.40712498 -0.24779945 174.70879521 -0.40059433 177.41455078 -0.3704071 C178.18750488 -0.37741638 178.96045898 -0.38442566 179.75683594 -0.39164734 C182.31229621 -0.40924926 184.86664753 -0.39758935 187.42211914 -0.38407898 C189.20609244 -0.3867752 190.99006431 -0.3906587 192.77403259 -0.39567566 C196.5174658 -0.40157527 200.26051742 -0.39300012 204.00390625 -0.37431335 C208.77625091 -0.351639 213.54768998 -0.36457017 218.32000065 -0.38860321 C222.00834304 -0.4031479 225.69647559 -0.39841379 229.38482475 -0.38809204 C231.14249214 -0.38544259 232.90017921 -0.38863109 234.65782356 -0.39801025 C248.50047945 -0.45561826 259.07454517 0.64963542 269.46899414 10.71357727 C278.1860871 20.22452108 280.3251128 29.33653705 280.00024414 41.91670227 C279.41584887 52.74124182 274.57213358 59.93160928 266.69946289 67.14717102 C257.44246299 74.61149648 249.36364485 75.42519174 237.76196289 75.64717102 C223.3203461 75.74670396 223.3203461 75.74670396 210.69946289 82.14717102 C205.19390963 88.26445243 204.18847554 92.7202261 204.31665039 100.87763977 C205.02801999 106.95331682 207.88635551 110.46673004 212.26196289 114.52217102 C218.93630626 118.97173327 225.17575275 119.29449162 233.10058594 119.28901672 C233.92259995 119.29249115 234.74461395 119.29596558 235.59153748 119.29954529 C237.36917642 119.30687146 239.14682433 119.31223348 240.92447472 119.31583595 C243.7466649 119.32304288 246.56868535 119.3387416 249.39082336 119.35717773 C257.41254322 119.40944299 265.43416826 119.45757847 273.45605469 119.47309875 C278.37150114 119.48322968 283.28651637 119.51268123 288.20179176 119.55441856 C290.06548603 119.566659 291.92924136 119.57186266 293.79297447 119.56962013 C307.95212797 119.5567769 318.81787725 120.40112865 329.46899414 130.71357727 C338.1860871 140.22452108 340.3251128 149.33653705 340.00024414 161.91670227 C339.41584887 172.74124182 334.57213358 179.93160928 326.69946289 187.14717102 C318.96161842 193.38653476 311.90129833 195.45189362 302.11787415 195.42132568 C301.27914818 195.42656236 300.4404222 195.43179904 299.5762803 195.43719441 C296.77915749 195.45213912 293.98221851 195.45289834 291.18505859 195.4535675 C289.17396234 195.46119277 287.16286899 195.4696209 285.15177917 195.47879028 C279.69701081 195.50070739 274.2422985 195.50953059 268.78749108 195.51461673 C265.37601768 195.51826394 261.96455888 195.52450595 258.55309105 195.53161812 C246.64134453 195.55610405 234.72964149 195.56916243 222.81787109 195.57270813 C211.73146054 195.57634152 200.64532715 195.6062252 189.55900127 195.64811271 C180.02753166 195.6828572 170.49615372 195.6982573 160.96462125 195.69895416 C155.27784042 195.69974563 149.59134199 195.70842431 143.90462685 195.73695183 C138.55205752 195.76320317 133.20000329 195.76529807 127.84739876 195.74929619 C125.8899396 195.74748726 123.93245035 195.75412177 121.97505569 195.7701149 C107.7296295 195.87935331 96.35139217 194.64451671 85.60180664 184.24482727 C78.91334493 176.86966517 75.85541056 168.55353676 75.32446289 158.64717102 C74.83906432 152.056952 72.71671902 146.34456185 68.12915039 141.48310852 C61.61345294 136.30085613 53.2355337 135.84455825 45.21231079 135.89561462 C44.40792238 135.89264449 43.60353396 135.88967435 42.77477014 135.8866142 C40.10587567 135.87903572 37.4372053 135.88544274 34.76831055 135.89179993 C32.8439672 135.88904714 30.919625 135.88536549 28.99528503 135.88082886 C24.86367887 135.87274063 20.73212675 135.87054241 16.60051346 135.87277603 C10.06056581 135.87561815 3.5207254 135.86122373 -3.01919556 135.84379578 C-21.61198322 135.79685421 -40.2047631 135.77283045 -58.79760742 135.76631165 C-69.07583117 135.762556 -79.35393302 135.74448816 -89.63210452 135.71121728 C-96.1262787 135.69105249 -102.62013745 135.68860872 -109.11433005 135.69949746 C-113.1629327 135.70211304 -117.21135337 135.68805956 -121.25990868 135.66941643 C-123.12908068 135.664115 -124.99828664 135.66555596 -126.86744499 135.67445183 C-140.86601791 135.73567258 -151.54472696 134.77143713 -162.07006836 124.58076477 C-170.78716132 115.06982096 -172.92618702 105.95780499 -172.60131836 93.37763977 C-172.01692309 82.55310022 -167.17320779 75.36273276 -159.30053711 68.14717102 C-151.5717187 61.91508539 -144.5105727 59.84754196 -134.73828125 59.86006165 C-133.91130234 59.85322861 -133.08432343 59.84639557 -132.23228455 59.83935547 C-130.44758352 59.82583077 -128.66284445 59.81673701 -126.87809944 59.81164551 C-124.04819094 59.80331056 -121.21859808 59.7827634 -118.38877869 59.7591095 C-112.38024538 59.71102856 -106.37168045 59.67800426 -100.36303711 59.64717102 C-93.40013623 59.61141818 -86.43739085 59.56939234 -79.47463799 59.51123047 C-76.69621028 59.49126605 -73.91790377 59.48286397 -71.13941956 59.47492981 C-69.42367114 59.46194857 -67.7079267 59.44842697 -65.9921875 59.4342804 C-64.84558151 59.43575325 -64.84558151 59.43575325 -63.67581177 59.43725586 C-56.00001577 59.34960473 -49.46438926 58.05023523 -43.30053711 53.14717102 C-39.63478673 49.07411504 -37.26617512 45.42406342 -36.62475586 39.95185852 C-36.52211426 39.15827942 -36.41947266 38.36470032 -36.3137207 37.54707336 C-36.15250732 36.2972467 -36.15250732 36.2972467 -35.98803711 35.02217102 C-34.16789295 22.6222929 -30.3183659 14.15827385 -20.30053711 6.14717102 C-13.56092267 2.00655746 -7.89900407 0.02995851 0 0 Z " fill="#000000" transform="translate(172.300537109375,316.8528289794922)"/>
<path d="M0 0 C4.62 0 9.24 0 14 0 C14.99 2.97 14.99 2.97 16 6 C19.49882036 7.16627345 22.64260103 7.14460777 26.28198242 7.1418457 C27.38990143 7.14705734 27.38990143 7.14705734 28.52020264 7.15237427 C30.12437882 7.15972481 31.72856513 7.16507394 33.33275414 7.16866493 C35.87664868 7.175841 38.42035151 7.19151749 40.96418762 7.21000671 C48.19720784 7.26241229 55.43012422 7.31041485 62.66333008 7.32592773 C67.08903832 7.3360413 71.51426542 7.36545319 75.9397831 7.40724754 C77.62174137 7.41951703 79.30376774 7.42468623 80.98576927 7.42244911 C98.75598538 7.40463527 98.75598538 7.40463527 106.2421875 13.96484375 C111.30337691 20.07943861 113.52031641 24.31678075 113.3046875 32.37890625 C112.42075481 39.9829939 108.84067246 44.76022972 103.09765625 49.58984375 C98.58093101 52.62622701 94.77114034 53.24016582 89.37109375 53.23828125 C88.08783203 53.25439453 86.80457031 53.27050781 85.48242188 53.28710938 C82.81263155 53.30875196 80.14468581 53.30931416 77.47460938 53.30273438 C65.75017696 53.48400989 56.42306539 56.06276376 47.71875 64.15625 C40.7365097 71.64628959 36.7447686 79.70641023 36.4375 90.0625 C36.82093093 99.97692821 40.02955518 109.16762309 47.25 116.1875 C49 118 49 118 49 121 C42.66876195 121.10231507 36.33774092 121.17184482 30.00585938 121.21972656 C27.85668979 121.23970984 25.70757364 121.26690594 23.55859375 121.30175781 C-3.18427198 121.72427521 -3.18427198 121.72427521 -13.4375 113.8125 C-20.20054641 107.23223863 -23.28879341 99.21706434 -24.34765625 89.9609375 C-25.40164211 81.22206444 -27.29582476 74.0477787 -34.18359375 68.12109375 C-40.09185085 63.98631011 -45.67982454 61.76131243 -52.96054077 61.7215271 C-54.12994202 61.71036362 -55.29934326 61.69920013 -56.50418091 61.68769836 C-57.77301117 61.68553818 -59.04184143 61.68337799 -60.34912109 61.68115234 C-61.70960074 61.67184616 -63.07007471 61.66167646 -64.43054199 61.65071106 C-68.11187546 61.62347471 -71.7931708 61.60828062 -75.47457838 61.59528303 C-79.3263278 61.57962455 -83.17799968 61.55284302 -87.0296936 61.5272522 C-94.31807062 61.48051244 -101.60646231 61.44374513 -108.89491236 61.41057932 C-117.19482064 61.37232395 -125.49465095 61.32292275 -133.79449344 61.27259517 C-150.86293917 61.16934678 -167.93143009 61.08006337 -185 61 C-184.2852995 57.76870756 -183.52753491 56.23280733 -181.1875 53.875 C-175.57106612 47.49085213 -173.95995739 40.70014773 -173 32.375 C-171.85489623 22.72895636 -169.47180377 17.74925571 -162.09765625 11.4453125 C-157.75375611 8.45230868 -153.99733788 7.74857435 -148.76902771 7.72825623 C-146.88682526 7.71367874 -146.88682526 7.71367874 -144.96659851 7.69880676 C-143.58377084 7.69803662 -142.20094306 7.69744759 -140.81811523 7.69702148 C-139.35590141 7.68935678 -137.89369198 7.68080974 -136.43148804 7.67144775 C-133.28745988 7.65319335 -130.14349092 7.64113939 -126.99941826 7.63390923 C-122.02852308 7.62241195 -117.05775892 7.59695139 -112.08692932 7.56959534 C-104.22599613 7.52796971 -96.36505661 7.49554339 -88.50406557 7.46712118 C-74.42229864 7.41612359 -60.3405866 7.3539783 -46.25891262 7.28178078 C-41.31672556 7.25686478 -36.37455573 7.23743046 -31.43232906 7.22239864 C-28.35979648 7.21219577 -25.28729078 7.19804975 -22.2147789 7.18292236 C-20.78934805 7.17676629 -19.36390872 7.17230729 -17.93846703 7.16966438 C-15.99362692 7.16585236 -14.04880297 7.15547618 -12.10398865 7.14476013 C-11.01539268 7.14090522 -9.9267967 7.1370503 -8.80521297 7.13307858 C-5.26878014 7.0779055 -5.26878014 7.0779055 -2 6 C-1.34 4.02 -0.68 2.04 0 0 Z " fill="#CCD1E0" transform="translate(324,324)"/>
<path d="M0 0 C1.48528563 -0.00485817 2.97056473 -0.01229909 4.45582581 -0.02212524 C8.48521377 -0.04092518 12.51362847 -0.02210727 16.54294038 0.00453901 C20.76460527 0.02719834 24.98622327 0.01895035 29.20793152 0.01504517 C36.3005662 0.01327956 43.39281848 0.03542848 50.48535156 0.07226562 C58.67371142 0.11455208 66.86151019 0.12163109 75.0499571 0.10914171 C82.93678335 0.09773008 90.8234129 0.10907735 98.7102108 0.1314888 C102.0613133 0.14075374 105.41229496 0.14254022 108.76340675 0.13831711 C112.71576543 0.1345345 116.66755768 0.15088605 120.61978722 0.1824379 C122.0660963 0.19088482 123.51246308 0.19265086 124.95878601 0.1870575 C134.09869777 0.15708747 140.74329975 0.4832362 147.84838867 6.70947266 C152.90957808 12.82406751 155.12651759 17.06140966 154.91088867 25.12353516 C154.02695598 32.7276228 150.44687363 37.50485863 144.70385742 42.33447266 C140.00690292 45.49201563 136.01927711 45.99958632 130.40429688 46.03173828 C129.69786545 46.03857132 128.99143402 46.04540436 128.26359558 46.05244446 C126.73533092 46.0659914 125.20702146 46.075071 123.67870522 46.08015442 C121.25164406 46.08848301 118.82495211 46.10902746 116.397995 46.13269043 C111.2382857 46.18082835 106.07853894 46.21377768 100.91870117 46.24462891 C94.95293398 46.28043215 88.98734617 46.32262766 83.0217495 46.38056946 C80.64560312 46.40045117 78.26959851 46.40892133 75.89338684 46.41687012 C62.45297921 46.18252219 62.45297921 46.18252219 50.16967773 50.83203125 C45.61610647 53.69032136 40.82650894 53.35572431 35.59057617 53.34619141 C34.01315643 53.35904678 34.01315643 53.35904678 32.40386963 53.37216187 C30.18504709 53.38361266 27.96614949 53.38467535 25.74731445 53.37597656 C22.37993816 53.36967334 19.01611007 53.41654707 15.64916992 53.46728516 C-5.94013724 53.59427695 -5.94013724 53.59427695 -15.28881836 45.00317383 C-16.91011493 43.35185325 -18.14007079 41.6877058 -19.39379883 39.74462891 C-19.80500977 39.12330078 -20.2162207 38.50197266 -20.63989258 37.86181641 C-24.71685631 30.44146028 -24.93709641 20.23282619 -22.66333008 12.14697266 C-21.70859669 10.12449662 -20.75719291 8.51821318 -19.39379883 6.74462891 C-18.83755325 5.73340973 -18.28130768 4.72219055 -17.70820618 3.68032837 C-13.37195655 -1.43240892 -6.13520228 -0.06991578 0 0 Z " fill="#CCD1E0" transform="translate(342.393798828125,114.25537109375)"/>
</svg>
