<?xml version="1.0" encoding="UTF-8"?>
<svg version="1.1" xmlns="http://www.w3.org/2000/svg" width="512" height="512">
<path d="M0 0 C1.175625 0.57234375 2.35125 1.1446875 3.5625 1.734375 C29.92158325 14.84301238 51.58942286 36.50436353 66 62 C66.36077637 62.63631348 66.72155273 63.27262695 67.09326172 63.92822266 C79.64272277 86.48716623 85.22435848 111.14767104 85.25 136.8125 C85.25133942 137.59768005 85.25267883 138.38286011 85.25405884 139.1918335 C85.24914209 152.44637235 84.71629321 165.03420449 80.44067383 177.72412109 C80.17080154 178.52707611 79.90092926 179.33003113 79.62287903 180.15731812 C79.41732895 180.76540314 79.21177887 181.37348816 79 182 C80.06773651 181.99111755 81.13547302 181.98223511 82.23556519 181.9730835 C92.32766532 181.89178411 102.41969849 181.83193237 112.51205254 181.79275131 C117.69990629 181.7719303 122.8874944 181.7437133 128.07519531 181.69824219 C133.08728754 181.65458826 138.09912521 181.63082168 143.11139297 181.62049103 C145.01785409 181.61313463 146.92430222 181.59876968 148.83065414 181.57707977 C162.44303789 181.4284465 172.6820792 181.97365553 183.0234375 191.78515625 C190.21779187 199.84681421 192.49123834 208.84834848 192.3125 219.4609375 C191.49998911 228.66262338 186.87923231 236.53580613 180.1171875 242.72265625 C171.61448502 249.50814627 163.94566616 250.42924222 153.34863281 250.27368164 C151.4738475 250.26487473 151.4738475 250.26487473 149.56118774 250.25588989 C146.85570828 250.24227195 144.15080154 250.22346737 141.44547272 250.19673347 C137.15687564 250.15625155 132.86854002 250.14644062 128.57977295 250.14268494 C116.38879431 250.12849677 104.19833442 250.09373635 92.0078125 249.9831543 C85.26434091 249.92223655 78.52172549 249.89740337 71.77798343 249.9120931 C68.21768611 249.91828296 64.65959967 249.90625459 61.09970856 249.8491993 C43.68730742 248.7410084 43.68730742 248.7410084 28.58886719 255.77905273 C27.0199077 257.4839896 25.48332143 259.22005586 24 261 C21.82413799 262.70849875 19.58121838 264.12635961 17.25 265.625 C16.24453125 266.27726562 15.2390625 266.92953125 14.203125 267.6015625 C13.47609375 268.06304687 12.7490625 268.52453125 12 269 C13.42094971 269.01401855 13.42094971 269.01401855 14.87060547 269.02832031 C18.43089099 269.07268795 21.99003553 269.13445614 25.54980469 269.20751953 C27.08192166 269.23551075 28.61417718 269.25683246 30.14648438 269.27099609 C43.57565869 269.40248279 53.3031441 271.12273748 63 281 C69.28414093 287.4587004 71.40383865 295.14384949 71.5 304 C71.31997376 316.57110082 66.43310913 323.74075869 57.6875 332.25 C49.28954104 337.71843839 41.37247117 338.6071161 31.51171875 338.56640625 C30.25035599 338.57260483 28.98899323 338.57880341 27.68940735 338.58518982 C25.03902632 338.59225953 22.39018295 338.59113708 19.73999023 338.57641602 C16.35247671 338.55913331 12.96664457 338.58287461 9.57931805 338.61790562 C6.32759794 338.64516825 3.07602087 338.63514796 -0.17578125 338.62890625 C-1.38728348 338.64216446 -2.59878571 338.65542267 -3.84700012 338.66908264 C-12.14462572 338.57693329 -12.14462572 338.57693329 -16.30151367 335.77319336 C-18 333 -18 333 -18 328 C-23.94 328 -29.88 328 -36 328 C-36.33 329.98 -36.66 331.96 -37 334 C-39.17725605 336.58549156 -40.80002056 337.78696017 -44.15625 338.3828125 C-48.10977436 338.58048872 -50.47864327 338.28240156 -54 336.375 C-56 334 -56 334 -57 328 C-63.93 328 -70.86 328 -78 328 C-78 329.65 -78 331.3 -78 333 C-79.73950195 335.77319336 -79.73950195 335.77319336 -83 338 C-87.05615756 338.73410271 -91.05544924 338.67648942 -95.16796875 338.62890625 C-96.95295525 338.63252419 -96.95295525 338.63252419 -98.77400208 338.63621521 C-101.29150727 338.6352363 -103.80903386 338.62183249 -106.32641602 338.59692383 C-110.15651778 338.56277622 -113.98429095 338.57622563 -117.81445312 338.59570312 C-120.26563473 338.5887998 -122.71681041 338.57912304 -125.16796875 338.56640625 C-126.30372849 338.57136612 -127.43948822 338.57632599 -128.60966492 338.58143616 C-141.63695057 338.39116186 -149.38067863 333.8031914 -158.25 324.6875 C-164.19509504 315.55753262 -165.04775143 306.62873619 -164 296 C-161.91099364 286.60565187 -155.73197561 279.49377214 -148 274 C-146.33789299 272.99243955 -144.67179033 271.99141054 -143 271 C-144.01578125 270.39414062 -145.0315625 269.78828125 -146.078125 269.1640625 C-147.46906255 268.3182221 -148.85966941 267.47183772 -150.25 266.625 C-150.91257812 266.23183594 -151.57515625 265.83867187 -152.2578125 265.43359375 C-155.65253765 263.35192266 -158.67035736 261.31761816 -161.55252075 258.54058838 C-168.16063036 252.23250359 -172.56660898 249.86450598 -182.01333618 249.81716919 C-183.35525925 249.85943227 -184.69716781 249.90215795 -186.0390625 249.9453125 C-187.45525772 249.95170462 -188.87148359 249.95305629 -190.28768921 249.94967651 C-193.98401725 249.95151089 -197.67710763 250.00912292 -201.37261963 250.08294678 C-207.29016532 250.19343072 -213.20821972 250.22503787 -219.12665939 250.24230576 C-221.17353805 250.25742094 -223.21821916 250.30120945 -225.26455688 250.34915161 C-236.66919579 250.46265279 -244.68784679 248.12334589 -253.0234375 240.21484375 C-260.21779187 232.15318579 -262.49123834 223.15165152 -262.3125 212.5390625 C-261.49998911 203.33737662 -256.87923231 195.46419387 -250.1171875 189.27734375 C-241.96849654 182.77436881 -234.67711027 181.55206214 -224.5 181.8125 C-223.48679688 181.82603516 -222.47359375 181.83957031 -221.4296875 181.85351562 C-218.95255596 181.88856937 -216.47657073 181.93770236 -214 182 C-214.26554687 181.07960938 -214.53109375 180.15921875 -214.8046875 179.2109375 C-215.15789062 177.94507813 -215.51109375 176.67921875 -215.875 175.375 C-216.22304687 174.14523437 -216.57109375 172.91546875 -216.9296875 171.6484375 C-219.69459144 160.48340741 -220.36273226 149.27478502 -220.3125 137.8125 C-220.31034485 137.13746429 -220.3081897 136.46242859 -220.30596924 135.76693726 C-220.24905034 124.60375991 -219.60712874 113.87263909 -217 103 C-216.72591309 101.83380127 -216.72591309 101.83380127 -216.44628906 100.64404297 C-210.59662436 76.75070808 -198.96906274 54.07724131 -182.0390625 36.16015625 C-180.14010674 34.14842725 -178.38578319 32.0696332 -176.625 29.9375 C-172.29366055 24.97741773 -167.19760221 21.01280279 -162 17 C-160.68322266 15.97712891 -160.68322266 15.97712891 -159.33984375 14.93359375 C-141.73318505 1.68322174 -122.31640593 -6.80327943 -101 -12 C-99.91307861 -12.27118652 -99.91307861 -12.27118652 -98.80419922 -12.54785156 C-66.55091395 -20.24578869 -29.31300143 -15.09619574 0 0 Z " fill="#000000" transform="translate(291,86)"/>
<path d="M0 0 C0.96421875 0.82371094 1.9284375 1.64742187 2.921875 2.49609375 C3.88609375 3.30949219 4.8503125 4.12289062 5.84375 4.9609375 C30.22897981 26.28117296 46.33475971 57.31169819 49.921875 89.49609375 C51.12148064 109.97347414 48.56570247 128.83852192 42.921875 148.49609375 C42.26810505 148.49663852 41.6143351 148.49718328 40.94075394 148.49774456 C24.9886939 148.51275124 9.03697757 148.55535426 -6.91491318 148.62818432 C-14.62934236 148.66274887 -22.34359445 148.68817858 -30.05810547 148.69165039 C-36.78682028 148.69470223 -43.51521899 148.71535539 -50.24381185 148.75661832 C-53.80236615 148.77784035 -57.36047231 148.7906053 -60.91909027 148.78224754 C-64.90450443 148.77321877 -68.88873667 148.80350977 -72.87402344 148.83666992 C-74.0371254 148.82804428 -75.20022736 148.81941864 -76.39857483 148.81053162 C-86.40720996 148.94938608 -94.9709218 151.21081843 -102.078125 158.49609375 C-102.738125 158.49609375 -103.398125 158.49609375 -104.078125 158.49609375 C-104.449375 159.26953125 -104.449375 159.26953125 -104.828125 160.05859375 C-106.13859135 162.61400314 -107.58891626 165.06466373 -109.078125 167.51953125 C-112.92676203 175.12660288 -113.3237973 183.37856375 -111.3203125 191.609375 C-109.59762703 196.62144021 -107.66496891 200.52494513 -104.078125 204.49609375 C-104.078125 205.15609375 -104.078125 205.81609375 -104.078125 206.49609375 C-103.49804688 206.77453125 -102.91796875 207.05296875 -102.3203125 207.33984375 C-99.50086397 208.7937754 -96.91389352 210.52416647 -94.2734375 212.27734375 C-89.16123742 215.11543347 -84.49040624 215.75478979 -78.69580078 215.81494141 C-77.98291397 215.82498703 -77.27002716 215.83503265 -76.53553772 215.84538269 C-74.19817858 215.87607387 -71.86093323 215.89321021 -69.5234375 215.91015625 C-67.89532502 215.92887926 -66.26722212 215.94845351 -64.63912964 215.96884155 C-60.36818101 216.0200492 -56.09720097 216.05973553 -51.82611084 216.09698486 C-47.46212056 216.137096 -43.09825971 216.18815583 -38.734375 216.23828125 C-30.18238026 216.33490586 -21.63032118 216.41935344 -13.078125 216.49609375 C-35.01039588 234.48264355 -68.8230099 238.14594169 -96.078125 236.49609375 C-101.53205105 235.95113886 -106.75967716 234.82570571 -112.078125 233.49609375 C-113.28984375 233.22925781 -114.5015625 232.96242188 -115.75 232.6875 C-131.64435302 228.91510609 -145.72153722 221.77269491 -159.078125 212.49609375 C-158.32789063 211.76003906 -157.57765625 211.02398437 -156.8046875 210.265625 C-148.54445239 201.87521426 -144.02522539 195.07014957 -143.640625 183.18359375 C-143.87301462 173.44259571 -146.13039314 165.44271402 -152.94921875 158.28515625 C-161.12314571 151.416058 -169.01440069 149.40848203 -179.44140625 149.1796875 C-180.62938057 149.14851585 -180.62938057 149.14851585 -181.84135437 149.11671448 C-184.35769428 149.05161571 -186.87413372 148.99251952 -189.390625 148.93359375 C-191.10222361 148.89037075 -192.81381235 148.84675527 -194.52539062 148.80273438 C-198.70953484 148.69597528 -202.89377862 148.5945974 -207.078125 148.49609375 C-217.13266292 125.41383554 -217.20390843 99.82147115 -212.078125 75.49609375 C-211.93890625 74.83029297 -211.7996875 74.16449219 -211.65625 73.47851562 C-206.58249913 50.20033456 -194.34791617 29.66681798 -178.078125 12.49609375 C-177.24539062 11.59890625 -176.41265625 10.70171875 -175.5546875 9.77734375 C-130.0484872 -37.73059556 -50.70613081 -41.24699219 0 0 Z " fill="#FEBD51" transform="translate(306.078125,119.50390625)"/>
<path d="M0 0 C0.79465164 -0.00686325 1.58930328 -0.0137265 2.40803528 -0.02079773 C5.01130506 -0.03896318 7.61396615 -0.03524261 10.21728516 -0.02954102 C12.04277744 -0.03410815 13.868268 -0.0394153 15.6937561 -0.04542542 C19.5115662 -0.05433672 23.3291669 -0.05195651 27.14697266 -0.04199219 C32.01790977 -0.03051251 36.88812083 -0.05070871 41.75896263 -0.07990932 C45.52701339 -0.09833594 49.29489229 -0.09796591 53.06297684 -0.0922718 C54.8577641 -0.09211934 56.65256358 -0.09810126 58.44730759 -0.11056328 C71.6710751 -0.18945057 81.62690936 0.67512894 91.65478516 10.18920898 C98.84913953 18.25086695 101.122586 27.25240122 100.94384766 37.86499023 C100.13133676 47.06667612 95.51057996 54.93985886 88.74853516 61.12670898 C81.82859753 66.64909058 74.98387398 68.86174785 66.24682617 68.80810547 C65.05243927 68.81840034 65.05243927 68.81840034 63.83392334 68.8289032 C61.22584738 68.84706688 58.61837898 68.84334882 56.01025391 68.83764648 C54.182366 68.84221325 52.3544798 68.84752029 50.52659607 68.85353088 C46.70458988 68.86244148 42.88279287 68.86006225 39.06079102 68.85009766 C34.18078816 68.83860979 29.30150913 68.85882709 24.4216013 68.88801479 C20.64930186 68.90642538 16.87717435 68.90607469 13.10484123 68.90037727 C11.30643638 68.90022466 9.50801943 68.90621929 7.70965767 68.91866875 C-10.17611383 69.02505813 -10.17611383 69.02505813 -17.36865234 64.40405273 C-18.16658203 63.94643555 -18.96451172 63.48881836 -19.78662109 63.01733398 C-27.8770078 57.07009608 -32.54437099 49.2703744 -34.36865234 39.40405273 C-35.48232322 29.48928837 -32.95260839 20.60284028 -27.16552734 12.50952148 C-19.88922567 3.98359409 -11.07842203 -0.06816364 0 0 Z " fill="#000000" transform="translate(382.36865234375,443.595947265625)"/>
<path d="M0 0 C1.1943869 -0.01029488 1.1943869 -0.01029488 2.41290283 -0.02079773 C5.02097879 -0.03896142 7.6284472 -0.03524335 10.23657227 -0.02954102 C12.06446018 -0.03410778 13.89234637 -0.03941483 15.7202301 -0.04542542 C19.54223629 -0.05433601 23.3640333 -0.05195678 27.18603516 -0.04199219 C32.06603801 -0.03050433 36.94531705 -0.05072162 41.82522488 -0.07990932 C45.59752431 -0.09831991 49.36965182 -0.09796922 53.14198494 -0.0922718 C54.94038979 -0.09211919 56.73880674 -0.09811382 58.5371685 -0.11056328 C76.42294 -0.21695266 76.42294 -0.21695266 83.61547852 4.40405273 C84.81237305 5.09047852 84.81237305 5.09047852 86.03344727 5.79077148 C94.12383397 11.73800939 98.79119716 19.53773107 100.61547852 29.40405273 C101.7291494 39.3188171 99.19943457 48.20526519 93.41235352 56.29858398 C88.00323716 62.63665728 80.99146007 67.51553802 72.59001541 68.68630791 C70.47052315 68.79690986 68.3691457 68.82116374 66.24682617 68.80810547 C65.45217453 68.81496872 64.65752289 68.82183197 63.83879089 68.8289032 C61.23552111 68.84706865 58.63286002 68.84334808 56.02954102 68.83764648 C54.20404873 68.84221362 52.37855817 68.84752077 50.55307007 68.85353088 C46.73525997 68.86244219 42.91765928 68.86006197 39.09985352 68.85009766 C34.2289164 68.83861798 29.35870534 68.85881418 24.48786354 68.88801479 C20.71981278 68.90644141 16.95193389 68.90607138 13.18384933 68.90037727 C11.38906207 68.90022481 9.59426259 68.90620673 7.79951859 68.91866875 C-5.42424893 68.99755604 -15.38008319 68.13297652 -25.40795898 58.61889648 C-32.60231336 50.55723852 -34.87575983 41.55570425 -34.69702148 30.94311523 C-33.88451059 21.74142935 -29.26375379 13.86824661 -22.50170898 7.68139648 C-15.58177136 2.15901489 -8.73704781 -0.05364238 0 0 Z " fill="#000000" transform="translate(63.384521484375,443.595947265625)"/>
<path d="M0 0 C1.80021371 -0.00269988 3.600426 -0.00658641 5.40063477 -0.01159668 C9.15948475 -0.01746843 12.91795253 -0.00900425 16.67675781 0.00976562 C21.47144502 0.03255387 26.26523633 0.01941823 31.05989075 -0.00452423 C34.77305737 -0.0190454 38.48601498 -0.01434742 42.19918823 -0.00401306 C43.96605539 -0.00136319 45.73294212 -0.0045536 47.49978638 -0.01393127 C60.2089332 -0.06659872 70.12230543 0.64916722 79.7578125 9.8203125 C86.85218486 17.04667318 89.82707655 24.36160616 89.9375 34.53125 C89.75747376 47.10235082 84.87060913 54.27200869 76.125 62.78125 C66.10237739 69.30760891 56.42900372 69.12382385 44.875 69.0625 C43.07478629 69.06519988 41.274574 69.06908641 39.47436523 69.07409668 C35.71551525 69.07996843 31.95704747 69.07150425 28.19824219 69.05273438 C23.40355498 69.02994613 18.60976367 69.04308177 13.81510925 69.06702423 C10.10194263 69.0815454 6.38898502 69.07684742 2.67581177 69.06651306 C0.90894461 69.06386319 -0.85794212 69.0670536 -2.62478638 69.07643127 C-15.3339332 69.12909872 -25.24730543 68.41333278 -34.8828125 59.2421875 C-41.97718486 52.01582682 -44.95207655 44.70089384 -45.0625 34.53125 C-44.88247376 21.96014918 -39.99560913 14.79049131 -31.25 6.28125 C-21.22737739 -0.24510891 -11.55400372 -0.06132385 0 0 Z " fill="#000000" transform="translate(233.5625,443.46875)"/>
<path d="M0 0 C1.62371029 -0.00456866 3.24741866 -0.00987626 4.87112427 -0.0158844 C8.26523724 -0.0247899 11.6591146 -0.02242234 15.05322266 -0.01245117 C19.37938691 -0.00097351 23.70473341 -0.0211671 28.03079033 -0.05036831 C31.38193841 -0.06881275 34.73289358 -0.0684214 38.08407974 -0.06273079 C39.67791006 -0.06257853 41.27175427 -0.06854287 42.86553574 -0.08102226 C55.02395859 -0.16281529 64.57154889 1.0311561 73.703125 9.72265625 C80.79749736 16.94901693 83.77238905 24.26394991 83.8828125 34.43359375 C83.70278626 47.00469457 78.81592163 54.17435244 70.0703125 62.68359375 C60.6922713 68.79022523 51.46889809 69.05706632 40.640625 69.03515625 C39.02456226 69.04294957 37.40850354 69.05162284 35.79244995 69.06112671 C32.41862664 69.07597596 29.04522218 69.07552425 25.67138672 69.06494141 C21.37874412 69.05336163 17.08783026 69.08722124 12.7954731 69.13363075 C9.46135687 69.16330347 6.12764761 69.16482249 2.7934227 69.1586113 C1.2123866 69.15962787 -0.3686753 69.16991561 -1.94958115 69.19023514 C-14.58324793 69.33272034 -23.76179943 66.75365335 -33.6171875 58.43359375 C-39.67780138 51.38149695 -43.42483121 42.06942652 -42.9609375 32.65625 C-41.24989432 21.59280034 -37.15028219 12.48110746 -28.1796875 5.55859375 C-19.01260363 -0.11073529 -10.43291199 -0.02575781 0 0 Z " fill="#000000" transform="translate(428.6171875,355.56640625)"/>
<path d="M0 0 C0.93602664 -0.0055344 1.87205329 -0.01106879 2.83644438 -0.0167709 C5.96874873 -0.03036966 9.10025522 -0.01541206 12.23254395 -0.00050354 C14.47982624 -0.00428698 16.7271062 -0.00978723 18.97438049 -0.01687622 C25.07557221 -0.03084463 31.17648236 -0.01965109 37.27765846 -0.00316501 C43.66101939 0.01067939 50.04436386 0.0042261 56.42773438 0.0007019 C67.14772159 -0.00200069 77.86757008 0.01139204 88.58752441 0.03465271 C99.61263178 0.05857276 110.63759107 0.06565666 121.66271973 0.05516052 C134.95511667 0.04252854 148.24740898 0.04504679 161.53981018 0.06081963 C166.61464539 0.06657988 171.68943103 0.06649641 176.76426697 0.06175423 C182.73969458 0.0569838 188.71491711 0.06708914 194.69030571 0.08870888 C196.88408657 0.09427597 199.07788714 0.09474277 201.27166939 0.08975601 C204.26475564 0.08380531 207.25721442 0.09630465 210.25024414 0.11352539 C211.11970153 0.10751535 211.98915893 0.1015053 212.88496351 0.09531313 C219.05617786 0.15993884 223.17559063 1.43844213 228.00012207 5.50120544 C230.48801294 10.09423473 230.36019183 14.39322068 229.62512207 19.50120544 C227.26540909 24.58366416 224.75884206 26.4581969 219.62512207 28.50120544 C216.4963694 28.92193811 213.40356211 28.91068252 210.25024414 28.8888855 C208.84620417 28.8969638 208.84620417 28.8969638 207.41379976 28.90520531 C204.28163231 28.91949719 201.14988673 28.91237805 198.0177002 28.90525818 C195.77041789 28.91096104 193.52313848 28.91792497 191.27586365 28.92605591 C185.17472928 28.94401032 179.07373854 28.94281475 172.97258568 28.93711352 C167.88040202 28.93402539 162.7882461 28.94010986 157.69606638 28.94615227 C144.99816343 28.9610064 132.30036218 28.95737761 119.60246545 28.94528896 C108.57817487 28.93535418 97.55405207 28.94830218 86.52978736 28.97222316 C75.20456202 28.99661171 63.87943696 29.005823 52.55417776 28.99957043 C46.19805823 28.99619629 39.84207736 28.99864654 33.48597717 29.01582146 C27.51051965 29.03126304 21.53538315 29.02736575 15.55993843 29.00851631 C13.36615117 29.00482293 11.17234027 29.0079606 8.97857475 29.0184021 C5.98534417 29.03156188 2.99318422 29.02010854 0 29.00241089 C-0.86945739 29.0120159 -1.73891479 29.0216209 -2.63471937 29.03151697 C-8.03051691 28.96581024 -11.09082317 28.0798219 -15.37487793 24.50120544 C-18.76578159 20.57489595 -20.04951203 17.55148098 -19.75769043 12.45433044 C-18.86903958 7.92039754 -16.25198524 5.23388297 -12.8123703 2.36065578 C-8.35027471 -0.05303544 -4.98872779 -0.05511111 0 0 Z " fill="#E7E6E8" transform="translate(232.3748779296875,287.49879455566406)"/>
<path d="M0 0 C1.1186998 -0.0038269 2.2373996 -0.00765381 3.38999939 -0.01159668 C5.74055895 -0.01430308 8.09114929 -0.00703174 10.44165039 0.00976562 C14.02103292 0.03121219 17.59841304 0.00990826 21.17773438 -0.015625 C23.47266064 -0.01298189 25.76758567 -0.00785728 28.0625 0 C29.12211441 -0.00809692 30.18172882 -0.01619385 31.27345276 -0.02453613 C41.38635443 0.10194649 49.59020349 3.56112588 56.96484375 10.53125 C63.04582857 17.57528672 66.77318535 26.8812558 66.30859375 36.30859375 C64.68597597 46.80029278 61.08729543 55.58209046 52.72265625 62.34375 C44.74501078 67.9307879 37.9284306 68.84736975 28.35546875 68.8671875 C26.67248688 68.8771727 26.67248688 68.8771727 24.95550537 68.88735962 C22.58526239 68.89746634 20.21499107 68.90217725 17.84472656 68.90185547 C14.24105218 68.90621827 10.63861336 68.94253244 7.03515625 68.98046875 C4.72526457 68.98633956 2.41536712 68.99030718 0.10546875 68.9921875 C-0.96153259 69.00655853 -2.02853394 69.02092957 -3.12786865 69.03573608 C-13.25967556 68.9746722 -20.99411257 66.24877953 -28.35546875 59.2421875 C-35.44984111 52.01582682 -38.4247328 44.70089384 -38.53515625 34.53125 C-38.35513001 21.96014918 -33.46826538 14.79049131 -24.72265625 6.28125 C-16.80356028 1.12462937 -9.31164956 -0.07129011 0 0 Z " fill="#000000" transform="translate(38.03515625,355.46875)"/>
<path d="M0 0 C1.07327223 -0.00935994 1.07327223 -0.00935994 2.16822672 -0.01890898 C4.55434498 -0.034803 6.93943656 -0.02224969 9.32556152 -0.00964355 C11.04083347 -0.0150663 12.75610076 -0.02218982 14.47135925 -0.03088379 C19.12220135 -0.04910199 23.77268808 -0.04205584 28.4235363 -0.02936745 C33.2934349 -0.019232 38.16330332 -0.02863464 43.03320312 -0.03491211 C51.21095231 -0.04218692 59.38855695 -0.03260516 67.56628418 -0.0135498 C77.0174113 0.00821861 86.46819325 0.00116713 95.919312 -0.02085543 C104.03753629 -0.03901415 112.15565674 -0.04156544 120.27389479 -0.03110075 C125.12095261 -0.02486842 129.96784826 -0.02402304 134.81489563 -0.0372467 C139.37210541 -0.04881144 143.92887067 -0.04076814 148.48603249 -0.01766968 C150.15734431 -0.01238591 151.82869361 -0.01389071 153.49999046 -0.02272034 C155.78394389 -0.03367314 158.06647846 -0.01991744 160.3503418 0 C162.26612156 0.00226215 162.26612156 0.00226215 164.22060394 0.00457001 C169.57552693 0.78483523 172.61744067 3.2553593 176.0501709 7.32043457 C177.99132394 11.12808092 178.20338999 13.28218183 177.6751709 17.50793457 C175.68672972 22.8453293 172.76849442 25.96127281 167.6751709 28.50793457 C166.0062914 28.60162621 164.33373861 28.6330713 162.66223145 28.63391113 C161.09501595 28.63962128 161.09501595 28.63962128 159.49613953 28.64544678 C158.36283707 28.646474 157.22953461 28.64750122 156.06188965 28.64855957 C153.67581239 28.6668864 151.28974441 28.6864566 148.90368652 28.70715332 C145.13114785 28.7361445 141.35920523 28.75793502 137.58654785 28.75842285 C133.95278674 28.76175287 130.3204108 28.7962801 126.68688965 28.83605957 C125.55965988 28.82898987 124.43243011 28.82192017 123.27104187 28.81463623 C116.95259416 28.87656328 116.95259416 28.87656328 111.48693848 31.79992676 C109.42475599 34.55226161 109.42475599 34.55226161 108.6751709 38.50793457 C102.7351709 38.50793457 96.7951709 38.50793457 90.6751709 38.50793457 C90.3451709 40.48793457 90.0151709 42.46793457 89.6751709 44.50793457 C87.49791485 47.09342613 85.87515034 48.29489474 82.5189209 48.89074707 C78.56539653 49.08842329 76.19652763 48.79033613 72.6751709 46.88293457 C70.6751709 44.50793457 70.6751709 44.50793457 69.6751709 38.50793457 C62.7451709 38.50793457 55.8151709 38.50793457 48.6751709 38.50793457 C47.6851709 36.19793457 46.6951709 33.88793457 45.6751709 31.50793457 C42.41052493 29.56012358 39.55160216 29.25830363 35.79650879 29.25256348 C34.38463036 29.24212509 34.38463036 29.24212509 32.94422913 29.23147583 C31.43626015 29.23297134 31.43626015 29.23297134 29.89782715 29.23449707 C27.75394169 29.21421136 25.61006151 29.19336064 23.46618652 29.17199707 C20.09773281 29.14938835 16.72948806 29.13292037 13.36096191 29.1270752 C10.1020362 29.11754687 6.8440435 29.08376976 3.58532715 29.04699707 C2.08039452 29.05456528 2.08039452 29.05456528 0.5450592 29.06228638 C-5.39945608 28.97880142 -8.77547309 28.42826526 -13.3248291 24.50793457 C-16.22108945 21.21219003 -17.22143208 18.60394302 -17.6373291 14.19543457 C-17.25995948 9.74247307 -16.19235797 7.90369244 -13.3248291 4.50793457 C-8.77675454 0.88379747 -5.78187998 0.00682725 0 0 Z " fill="#E7E6E8" transform="translate(164.3248291015625,375.4920654296875)"/>
<path d="M0 0 C0.7128566 -0.00525696 1.4257132 -0.01051392 2.16017151 -0.01593018 C4.50682765 -0.02908864 6.85280034 -0.02040634 9.19946289 -0.01025391 C10.83704254 -0.01227607 12.4746213 -0.0151887 14.11219788 -0.01895142 C17.5410318 -0.02336932 20.96963092 -0.01696186 24.3984375 -0.00292969 C28.78437754 0.01414849 33.16976624 0.00432654 37.555686 -0.01364708 C40.9366925 -0.02451098 44.31756928 -0.02102643 47.69857979 -0.0132637 C49.3152428 -0.01126819 50.93191775 -0.01369811 52.54856682 -0.02070236 C54.81264094 -0.0283585 57.07583484 -0.01665498 59.33984375 0 C61.26913979 0.00358017 61.26913979 0.00358017 63.2374115 0.00723267 C68.11621588 0.53868097 71.38651942 2.25294172 75.10961914 5.38818359 C77.59751001 9.98121288 77.4696889 14.28019883 76.73461914 19.38818359 C74.37160575 24.47775089 71.83759549 26.27936047 66.73461914 28.38818359 C63.24414062 28.77586365 63.24414062 28.77586365 59.35571289 28.79223633 C58.28620895 28.8025312 58.28620895 28.8025312 57.19509888 28.81303406 C54.85389925 28.83123587 52.51337388 28.82747479 50.17211914 28.82177734 C48.53596785 28.82634189 46.89981848 28.83164828 45.26367188 28.83766174 C41.84082226 28.84657947 38.41820615 28.84418455 34.99536133 28.83422852 C30.61718373 28.82273216 26.23981189 28.84296676 21.86174011 28.87214565 C18.485015 28.89052258 15.10848255 28.89021241 11.73171997 28.88450813 C10.1178372 28.88435514 8.50394119 28.89038095 6.8901062 28.90279961 C4.63073646 28.91773935 2.37284988 28.90701327 0.11352539 28.88989258 C-1.16965576 28.88972641 -2.45283691 28.88956024 -3.77490234 28.88938904 C-7.8973203 28.29744203 -10.04285993 26.98052603 -13.26538086 24.38818359 C-16.56337202 19.66106293 -17.16917314 14.99169576 -16.26538086 9.38818359 C-12.55469481 1.96681149 -8.06872381 0.01498229 0 0 Z " fill="#E6E5E7" transform="translate(385.265380859375,463.61181640625)"/>
<path d="M0 0 C1.06950394 -0.01051392 1.06950394 -0.01051392 2.16061401 -0.02124023 C4.50201122 -0.03875072 6.84218568 -0.02722344 9.18359375 -0.01367188 C10.81974518 -0.01636882 12.45589505 -0.02025292 14.09204102 -0.02526855 C17.51496699 -0.03115415 20.93747439 -0.02263131 24.36035156 -0.00390625 C28.73856425 0.01888316 33.11579604 0.00575498 37.49397278 -0.01819611 C40.87072076 -0.03267974 44.24723782 -0.02803644 47.62399292 -0.01768494 C49.23786537 -0.01502472 50.85175908 -0.01826255 52.46560669 -0.02760315 C54.7250284 -0.03781169 56.98288201 -0.02221044 59.2421875 0 C60.52536865 0.00318237 61.8085498 0.00636475 63.13061523 0.00964355 C68.50725654 0.79205261 71.54851759 3.24742214 74.99609375 7.33007812 C76.93724679 11.13772447 77.14931284 13.29182539 76.62109375 17.51757812 C74.63265258 22.85497286 71.71441727 25.97091636 66.62109375 28.51757812 C64.31482765 28.63036098 62.0052442 28.67698819 59.69628906 28.69458008 C58.62766129 28.70443687 58.62766129 28.70443687 57.53744507 28.7144928 C55.17470192 28.73423708 52.81202242 28.74589196 50.44921875 28.75585938 C49.64213219 28.7599349 48.83504562 28.76401043 48.00350189 28.76820946 C43.73020177 28.78907684 39.45693381 28.80337461 35.18359375 28.81274414 C30.77398877 28.82379909 26.36488974 28.8581861 21.95546341 28.89791584 C18.56161577 28.92409148 15.16788837 28.93243688 11.77394867 28.93602562 C10.14887838 28.94089059 8.52381342 28.95250213 6.89884186 28.97106361 C4.61998233 28.99547228 2.34242742 28.99448741 0.06347656 28.98754883 C-1.23176941 28.99341507 -2.52701538 28.99928131 -3.86151123 29.00532532 C-9.23746173 28.25985751 -12.26743849 25.80454079 -15.75390625 21.76757812 C-17.7476781 17.78003443 -18.23548275 14.8878664 -17.37890625 10.51757812 C-13.5902383 2.94024223 -8.32843515 0.02065506 0 0 Z " fill="#E6E5E7" transform="translate(226.37890625,463.482421875)"/>
<path d="M0 0 C0.71110428 -0.00671722 1.42220856 -0.01343445 2.15486145 -0.02035522 C4.50199403 -0.03932757 6.84884046 -0.04325921 9.19604492 -0.04541016 C10.83265804 -0.05183944 12.46927002 -0.0585679 14.10588074 -0.06558228 C17.53643456 -0.0775537 20.9668877 -0.08126332 24.39746094 -0.08007812 C28.78228738 -0.07987513 33.16646429 -0.10715741 37.55113697 -0.14162254 C40.93217401 -0.16391949 44.31305554 -0.16791479 47.69415855 -0.16685867 C49.31001711 -0.16921119 50.92588018 -0.17801502 52.54166603 -0.19352341 C54.80818023 -0.21323778 57.07330461 -0.20732509 59.33984375 -0.1953125 C61.27033318 -0.19958755 61.27033318 -0.19958755 63.23982239 -0.20394897 C68.45157512 0.50713057 72.25404882 2.47282509 75.80151367 6.47802734 C77.55250985 11.11301723 77.78262086 15.59179436 76.17260742 20.32177734 C73.90337247 24.803279 71.41137947 26.4649329 66.86401367 28.29052734 C63.37353516 28.6782074 63.37353516 28.6782074 59.48510742 28.69458008 C58.41560349 28.70487495 58.41560349 28.70487495 57.32449341 28.71537781 C54.98329378 28.73357962 52.64276841 28.72981854 50.30151367 28.72412109 C48.66536238 28.72868564 47.02921301 28.73399203 45.39306641 28.74000549 C41.97021679 28.74892322 38.54760068 28.7465283 35.12475586 28.73657227 C30.74657826 28.72507591 26.36920642 28.74531051 21.99113464 28.7744894 C18.61440954 28.79286633 15.23787708 28.79255616 11.8611145 28.78685188 C10.24723174 28.78669889 8.63333573 28.7927247 7.01950073 28.80514336 C4.76013099 28.8200831 2.50224441 28.80935702 0.24291992 28.79223633 C-1.04026123 28.79207016 -2.32344238 28.79190399 -3.64550781 28.79173279 C-8.593866 28.08118721 -11.68511672 25.88648392 -15.01098633 22.22802734 C-16.78481337 17.59636783 -16.90959604 13.17572939 -16.13598633 8.29052734 C-12.64967327 1.29023207 -7.26813746 0.04313333 0 0 Z " fill="#E6E5E7" transform="translate(66.135986328125,463.70947265625)"/>
<path d="M0 0 C0.71110428 -0.00671722 1.42220856 -0.01343445 2.15486145 -0.02035522 C4.50199403 -0.03932757 6.84884046 -0.04325921 9.19604492 -0.04541016 C10.83265804 -0.05183944 12.46927002 -0.0585679 14.10588074 -0.06558228 C17.53643456 -0.0775537 20.9668877 -0.08126332 24.39746094 -0.08007812 C28.78228738 -0.07987513 33.16646429 -0.10715741 37.55113697 -0.14162254 C40.93217401 -0.16391949 44.31305554 -0.16791479 47.69415855 -0.16685867 C49.31001711 -0.16921119 50.92588018 -0.17801502 52.54166603 -0.19352341 C54.80818023 -0.21323778 57.07330461 -0.20732509 59.33984375 -0.1953125 C61.27033318 -0.19958755 61.27033318 -0.19958755 63.23982239 -0.20394897 C68.45157512 0.50713057 72.25404882 2.47282509 75.80151367 6.47802734 C77.55250985 11.11301723 77.78262086 15.59179436 76.17260742 20.32177734 C73.90337247 24.803279 71.41137947 26.4649329 66.86401367 28.29052734 C63.37353516 28.6782074 63.37353516 28.6782074 59.48510742 28.69458008 C58.41560349 28.70487495 58.41560349 28.70487495 57.32449341 28.71537781 C54.98329378 28.73357962 52.64276841 28.72981854 50.30151367 28.72412109 C48.66536238 28.72868564 47.02921301 28.73399203 45.39306641 28.74000549 C41.97021679 28.74892322 38.54760068 28.7465283 35.12475586 28.73657227 C30.74657826 28.72507591 26.36920642 28.74531051 21.99113464 28.7744894 C18.61440954 28.79286633 15.23787708 28.79255616 11.8611145 28.78685188 C10.24723174 28.78669889 8.63333573 28.7927247 7.01950073 28.80514336 C4.76013099 28.8200831 2.50224441 28.80935702 0.24291992 28.79223633 C-1.04026123 28.79207016 -2.32344238 28.79190399 -3.64550781 28.79173279 C-8.593866 28.08118721 -11.68511672 25.88648392 -15.01098633 22.22802734 C-16.78481337 17.59636783 -16.90959604 13.17572939 -16.13598633 8.29052734 C-12.64967327 1.29023207 -7.26813746 0.04313333 0 0 Z " fill="#E6E5E7" transform="translate(66.135986328125,287.70947265625)"/>
<path d="M0 0 C1.2816806 -0.0127597 2.56336121 -0.02551941 3.88388062 -0.03866577 C5.28017017 -0.0417235 6.67646176 -0.04395122 8.07275391 -0.04541016 C9.50998059 -0.05184029 10.94720597 -0.05856882 12.38442993 -0.06558228 C15.39547763 -0.07754786 18.40641067 -0.08126387 21.41748047 -0.08007812 C25.26660295 -0.07987501 29.11498647 -0.10717152 32.96393394 -0.14162254 C35.93231551 -0.16391446 38.9005199 -0.16791498 41.86897659 -0.16685867 C43.28749767 -0.16921141 44.70602386 -0.17801655 46.12446213 -0.19352341 C48.11282515 -0.21322517 50.10140581 -0.20481213 52.08984375 -0.1953125 C53.21917328 -0.19816254 54.34850281 -0.20101257 55.51205444 -0.20394897 C60.66719203 0.60214916 63.74413017 3.18899102 67.04931641 7.10302734 C68.99046945 10.91067369 69.2025355 13.0647746 68.67431641 17.29052734 C66.68587523 22.62792208 63.76763993 25.74386558 58.67431641 28.29052734 C56.64367036 28.40254993 54.60934034 28.44984682 52.57568359 28.4675293 C51.29385193 28.48036453 50.01202026 28.49319977 48.69134521 28.50642395 C47.28463121 28.51459239 45.87791283 28.52203593 44.47119141 28.52880859 C43.7633979 28.53288412 43.0556044 28.53695965 42.32636261 28.54115868 C38.57825512 28.56202298 34.83018426 28.57632166 31.08203125 28.58569336 C27.21720123 28.59674355 23.35294925 28.63112544 19.48832321 28.67086506 C16.51138263 28.69706086 13.53457896 28.70538789 10.55753326 28.70897484 C9.13341631 28.71383519 7.70930525 28.72543361 6.28530121 28.74401283 C4.28718521 28.76845676 2.28878775 28.76501432 0.29052734 28.76049805 C-0.84483459 28.76636429 -1.98019653 28.77223053 -3.14996338 28.77827454 C-8.04004283 28.02722521 -11.08824485 25.39770937 -14.70068359 22.16552734 C-17.11923355 17.88655435 -17.32617205 14.08391231 -16.32568359 9.29052734 C-12.45992934 2.48181179 -7.69797383 0.05203888 0 0 Z " fill="#E6E5E7" transform="translate(423.32568359375,375.70947265625)"/>
<path d="M0 0 C0.93171021 -0.0038269 1.86342041 -0.00765381 2.82336426 -0.01159668 C4.78671351 -0.01430996 6.75009927 -0.00698976 8.71337891 0.00976562 C11.70948281 0.03118375 14.70318896 0.00994427 17.69921875 -0.015625 C19.61198443 -0.01298162 21.52474863 -0.00785643 23.4375 0 C24.32828247 -0.00809692 25.21906494 -0.01619385 26.13684082 -0.02453613 C32.9669447 0.07785491 36.5353214 2.05967102 41.59375 6.71875 C43.88887057 10.69107406 43.88862385 14.04636287 43.21875 18.53125 C41.2285536 23.24487305 37.77529346 26.25297827 33.21875 28.53125 C31.86213762 28.64019693 30.50050847 28.69018147 29.13964844 28.70825195 C28.29827332 28.72108719 27.45689819 28.73392242 26.59002686 28.74714661 C25.67859924 28.75453354 24.76717163 28.76192047 23.828125 28.76953125 C22.890755 28.777603 21.95338501 28.78567474 20.98760986 28.79399109 C19.00038505 28.80783686 17.01313641 28.81855681 15.02587891 28.82641602 C11.99465455 28.84360312 8.9645281 28.88748164 5.93359375 28.93164062 C4.00261219 28.94176983 2.07162135 28.95028522 0.140625 28.95703125 C-1.21437103 28.98329338 -1.21437103 28.98329338 -2.59674072 29.01008606 C-8.17224211 28.99098557 -11.37129743 28.27306665 -15.78125 24.53125 C-19.17215366 20.6049405 -20.4558841 17.58152553 -20.1640625 12.484375 C-19.27754068 7.9613045 -16.6627828 5.27434346 -13.24414062 2.39257812 C-8.68099977 -0.06014226 -5.09896145 -0.04634791 0 0 Z " fill="#E6E5E7" transform="translate(39.78125,375.46875)"/>
<path d="M0 0 C7.19274758 4.0659464 13.0262342 10.65933254 18.8125 16.4375 C19.75287109 17.35337891 20.69324219 18.26925781 21.66210938 19.21289062 C30.21693206 27.73102358 30.21693206 27.73102358 32 34 C32 38.05746382 31.31252059 39.59818782 28.8125 42.8125 C25.59818782 45.31252059 24.05746382 46 20 46 C14.66421768 44.13458798 11.1198935 41.69917369 7.171875 37.6328125 C6.39834686 36.8579097 6.39834686 36.8579097 5.60919189 36.06735229 C4.52895316 34.9811111 3.45353857 33.89005275 2.3828125 32.79443359 C0.75097154 31.12599333 -0.89639793 29.4742052 -2.546875 27.82421875 C-3.59990751 26.76135623 -4.65202302 25.69758423 -5.703125 24.6328125 C-6.4344162 23.89818283 -6.4344162 23.89818283 -7.18048096 23.14871216 C-10.97127637 19.25223224 -13.70739998 16.01162512 -14.5 10.5625 C-13.83624442 5.83324149 -12.34318209 4.34318209 -9 1 C-5.78509882 -0.60745059 -3.5698929 -0.40305242 0 0 Z " fill="#000000" transform="translate(76,62)"/>
<path d="M0 0 C2.82275936 1.25455972 4.46288541 2.28384722 6.3125 4.75 C7.31516165 8.03143813 7.35356638 10.58219169 7 14 C4.39154108 18.42789296 1.22628866 22.1163649 -2.359375 25.765625 C-2.8674469 26.28509705 -3.3755188 26.80456909 -3.89898682 27.33978271 C-4.96860278 28.42816603 -6.04105656 29.51376713 -7.11621094 30.59667969 C-8.74597629 32.24592819 -10.35315081 33.91529293 -11.9609375 35.5859375 C-13.00908899 36.64714632 -14.05852697 37.70708633 -15.109375 38.765625 C-15.5805072 39.26145081 -16.0516394 39.75727661 -16.53704834 40.26812744 C-20.47393955 44.15441724 -23.66950856 45.17630672 -29 46 C-33.15789924 45.07163143 -35.59532524 43.60701215 -38 40 C-38.69741572 36.87088701 -38.58727793 34.14395404 -38 31 C-36.81152344 29.18212891 -36.81152344 29.18212891 -35.171875 27.4140625 C-34.53709229 26.72642822 -33.90230957 26.03879395 -33.24829102 25.33032227 C-29.26296334 21.19958574 -25.24967595 17.10185727 -21.18237305 13.05200195 C-19.66921334 11.54427904 -18.16157115 10.03118241 -16.65429688 8.51757812 C-15.69042526 7.55436608 -14.72624416 6.5914636 -13.76171875 5.62890625 C-12.4617395 4.3306189 -12.4617395 4.3306189 -11.13549805 3.00610352 C-7.48510107 -0.42310786 -4.9539101 -0.33585831 0 0 Z " fill="#000000" transform="translate(378,62)"/>
<path d="M0 0 C1.34302437 -0.00855011 1.34302437 -0.00855011 2.71318054 -0.01727295 C4.61045142 -0.0267289 6.50773876 -0.03325929 8.4050293 -0.03710938 C11.30221405 -0.04680139 14.19868537 -0.07781331 17.09570312 -0.109375 C18.93879787 -0.11590643 20.78189769 -0.12115635 22.625 -0.125 C23.48974442 -0.1373468 24.35448883 -0.1496936 25.24543762 -0.16241455 C30.00744062 -0.14485813 33.13902932 0.12061881 37.01171875 3.203125 C39.55163746 6.16636349 40.26857835 8.38071962 40.07421875 12.203125 C39.81941321 15.44372876 38.85054267 16.37314142 36.5546875 18.79492188 C32.45956373 22.09704071 28.49511298 21.89240343 23.4140625 21.796875 C22.50217667 21.79691528 21.59029083 21.79695557 20.65077209 21.79699707 C18.73024574 21.79165385 16.80971905 21.77412253 14.8894043 21.74511719 C11.95488508 21.70320593 9.02265923 21.70405702 6.08789062 21.7109375 C4.21743202 21.7004459 2.3469852 21.68750795 0.4765625 21.671875 C-0.39750748 21.67167358 -1.27157745 21.67147217 -2.1721344 21.67126465 C-6.9243791 21.57917535 -10.12187293 21.27235039 -13.98828125 18.203125 C-16.56017804 14.77392928 -16.49042325 11.36373014 -15.98828125 7.203125 C-11.80528502 0.23664801 -7.57633933 0.03697506 0 0 Z " fill="#000000" transform="translate(407.98828125,212.796875)"/>
<path d="M0 0 C1.34302437 -0.00855011 1.34302437 -0.00855011 2.71318054 -0.01727295 C4.61045142 -0.0267289 6.50773876 -0.03325929 8.4050293 -0.03710938 C11.30221405 -0.04680139 14.19868537 -0.07781331 17.09570312 -0.109375 C18.93879787 -0.11590643 20.78189769 -0.12115635 22.625 -0.125 C23.48974442 -0.1373468 24.35448883 -0.1496936 25.24543762 -0.16241455 C30.0052088 -0.14486636 33.13555153 0.12419712 37.01171875 3.203125 C39.35251515 6.21272037 39.42697885 9.48067025 39.3359375 13.234375 C38.81766942 16.38144863 37.28396473 18.06072165 35.01171875 20.203125 C32.30995611 21.10371255 30.67570143 21.34233807 27.89501953 21.38012695 C26.65825974 21.39937981 26.65825974 21.39937981 25.39651489 21.41902161 C24.50898529 21.42640854 23.62145569 21.43379547 22.70703125 21.44140625 C21.33283524 21.45351387 21.33283524 21.45351387 19.93087769 21.46586609 C17.99251186 21.47969373 16.05412183 21.49042179 14.11572266 21.49829102 C11.15480427 21.51551977 8.19499808 21.55941914 5.234375 21.60351562 C3.35026862 21.61364157 1.46615276 21.62215798 -0.41796875 21.62890625 C-1.74319046 21.65516838 -1.74319046 21.65516838 -3.09518433 21.68196106 C-7.25866925 21.66730001 -9.41959967 21.5593628 -13.02392578 19.30151367 C-16.2982575 15.80376559 -16.37757608 13.10989668 -16.34765625 8.46484375 C-15.77771259 4.87791571 -13.78602076 3.33473606 -10.98828125 1.203125 C-7.5948531 -0.49358908 -3.73405613 0.01822344 0 0 Z " fill="#000000" transform="translate(15.98828125,212.796875)"/>
<path d="M0 0 C2.87029869 1.79393668 4.49131638 2.98263276 6 6 C6.10380502 7.33143136 6.14858373 8.66776098 6.16113281 10.00317383 C6.17074036 10.82775589 6.1803479 11.65233795 6.19024658 12.50190735 C6.19449646 13.39459824 6.19874634 14.28728912 6.203125 15.20703125 C6.20882507 16.12457687 6.21452515 17.0421225 6.22039795 17.98747253 C6.22985433 19.93182215 6.23638446 21.87618784 6.24023438 23.82055664 C6.24992709 26.79016254 6.28093903 29.75907263 6.3125 32.72851562 C6.31903134 34.61718339 6.32428129 36.5058561 6.328125 38.39453125 C6.3404718 39.28114944 6.3528186 40.16776764 6.36553955 41.08125305 C6.34831574 45.86794072 6.17088522 49.14877692 3 53 C-0.71042531 55.47361688 -3.69862675 55.54607278 -8 55 C-11.86671149 53.31882109 -13.41529999 51.84526412 -15 48 C-15.26742554 46.00283813 -15.26742554 46.00283813 -15.29052734 43.87744141 C-15.30328705 43.07625885 -15.31604675 42.27507629 -15.32919312 41.44961548 C-15.33141876 40.592258 -15.33364441 39.73490051 -15.3359375 38.8515625 C-15.3459227 37.51634048 -15.3459227 37.51634048 -15.35610962 36.15414429 C-15.36622346 34.27303124 -15.37092703 32.3918824 -15.37060547 30.51074219 C-15.37497415 27.64197241 -15.41129391 24.77474725 -15.44921875 21.90625 C-15.45508819 20.07552607 -15.45905673 18.24479487 -15.4609375 16.4140625 C-15.47530853 15.56075348 -15.48967957 14.70744446 -15.50448608 13.82827759 C-15.46215186 8.27279374 -14.61907043 5.27156531 -11 1 C-7.54260443 -0.72869779 -3.78024432 -0.48966895 0 0 Z " fill="#000000" transform="translate(228,0)"/>
<path d="M0 0 C3.14373796 2.67217727 3.87287599 4.52540369 4.9375 8.5 C5.00808731 12.45288943 4.4421472 13.94731599 2 17 C-2.0368865 19.69125767 -5.25964175 19.66531344 -10 19 C-13.50906933 17.09925411 -14.66615341 15.93894353 -16 12.1875 C-16 7.31922341 -14.43141666 3.76174358 -11.375 0 C-7.51567184 -1.62498028 -3.96701261 -1.18135302 0 0 Z " fill="#020202" transform="translate(250,405)"/>
</svg>
