<?xml version="1.0" encoding="UTF-8"?>
<svg version="1.1" xmlns="http://www.w3.org/2000/svg" width="512" height="512">
<path d="M0 0 C23.76462708 18.65659804 38.62836824 43.88853329 43.2265625 73.75976562 C43.45221652 75.94520935 43.59129693 78.139574 43.69921875 80.33398438 C44.31925781 80.31078125 44.93929688 80.28757812 45.578125 80.26367188 C73.88951678 79.68672939 99.36422916 89.82478116 119.69921875 109.33398438 C120.40949219 109.99269531 121.11976563 110.65140625 121.8515625 111.33007812 C135.06751731 123.93723655 143.34826944 140.76560226 147.69921875 158.33398438 C147.88468262 159.07567871 148.07014648 159.81737305 148.26123047 160.58154297 C152.10301704 177.5697107 151.02491606 196.78147229 145.69921875 213.33398438 C145.49022949 213.98753906 145.28124023 214.64109375 145.06591797 215.31445312 C136.55984456 240.85178813 117.45288832 261.25447323 93.69921875 273.33398438 C78.83136088 280.52810915 63.73001033 283.48375783 47.31019592 283.4811554 C46.06185343 283.48483208 44.81351093 283.48850877 43.52733988 283.49229687 C40.07376034 283.50226832 36.62019819 283.5060258 33.16660631 283.50868618 C29.43700135 283.51260372 25.70740996 283.52218099 21.97781372 283.53089905 C12.97650051 283.55062255 3.97518624 283.5607244 -5.02614316 283.56962684 C-9.27135674 283.57401645 -13.51656909 283.57938151 -17.76178169 283.58461571 C-31.88458338 283.60162381 -46.00738431 283.61611629 -60.13019466 283.62336445 C-63.79163044 283.62527415 -67.4530662 283.62719451 -71.11450195 283.62915039 C-72.02446521 283.62963413 -72.93442847 283.63011787 -73.87196637 283.63061627 C-88.60119831 283.63891039 -103.33034889 283.66423872 -118.05954533 283.69673107 C-133.20201199 283.72986114 -148.34443737 283.74781857 -163.48694044 283.75100869 C-171.98064796 283.75316827 -180.4742368 283.76183583 -188.96790886 283.78746986 C-196.20380455 283.8092583 -203.43955272 283.81718749 -210.6754775 283.80750308 C-214.36158372 283.80298182 -218.0473861 283.80471623 -221.73344994 283.82426453 C-248.34803248 283.95736223 -269.48228463 281.16753897 -289.6328125 262.13085938 C-303.69051664 247.66603263 -308.95051851 229.57064381 -308.77392578 209.75854492 C-308.25044486 192.67467423 -301.64012787 178.05040534 -290.30078125 165.33398438 C-289.67300781 164.62371094 -289.04523438 163.9134375 -288.3984375 163.18164062 C-278.93723745 153.10130274 -263.9587385 143.86389152 -249.80859375 143.22070312 C-247.63440053 143.21054334 -245.47286968 143.24348069 -243.30078125 143.33398438 C-243.29820312 142.79773438 -243.295625 142.26148438 -243.29296875 141.70898438 C-242.50991053 125.83900446 -233.99170177 109.75517386 -222.421875 99.01367188 C-208.21279304 87.76154436 -192.65116988 81.08354483 -174.30078125 81.33398438 C-174.21441406 80.30402344 -174.12804687 79.2740625 -174.0390625 78.21289062 C-171.1709221 47.7506387 -157.29956183 21.55367232 -133.66357422 1.97802734 C-95.24864866 -28.10794608 -39.0752093 -29.37226407 0 0 Z M-129.30078125 17.33398438 C-130.07679688 18.03007813 -130.8528125 18.72617187 -131.65234375 19.44335938 C-150.05057542 36.76678026 -159.52371895 60.96073587 -160.67578125 85.89648438 C-160.70414063 87.05277344 -160.7325 88.2090625 -160.76171875 89.40039062 C-161.30078125 92.33398438 -161.30078125 92.33398438 -162.875 94.23632812 C-166.1958409 95.73899526 -169.18495952 95.52326441 -172.73828125 95.33398438 C-188.64907645 94.97077372 -202.66401644 100.07023993 -214.30859375 111.18164062 C-224.70881518 122.41795829 -228.61175827 134.80184829 -230.72265625 149.62304688 C-231.30078125 153.33398438 -231.30078125 153.33398438 -232.30078125 155.33398438 C-235.47717684 155.95545308 -238.55877509 156.29204996 -241.7890625 156.47460938 C-256.97902538 157.4418429 -269.98084295 163.88021685 -280.42578125 175.02148438 C-291.72262482 188.95425811 -295.78689915 203.27209056 -294.5625 220.92724609 C-293.02407515 235.07444025 -284.91181288 248.46681232 -274.015625 257.48632812 C-270.56783477 259.83280982 -267.01047683 261.8091484 -263.30078125 263.70898438 C-262.64843506 264.04325439 -261.99608887 264.37752441 -261.32397461 264.72192383 C-252.32809104 269.07144642 -243.64818213 269.62807995 -233.76063538 269.60140991 C-232.52016227 269.60594103 -231.27968916 269.61047214 -230.00162596 269.61514056 C-226.57916108 269.6255703 -223.15690726 269.62711735 -219.73444164 269.62475181 C-216.03481934 269.62434207 -212.33522788 269.63539799 -208.63562012 269.64486694 C-201.39372042 269.66144625 -194.15185329 269.66697517 -186.9099362 269.6680917 C-181.01737524 269.66904398 -175.12482496 269.67316329 -169.23226738 269.67949295 C-152.49867106 269.69709987 -135.76510034 269.70633311 -119.03149468 269.704832 C-118.13027868 269.70475209 -117.22906268 269.70467218 -116.30053711 269.70458984 C-115.39821071 269.70450808 -114.4958843 269.70442632 -113.56621467 269.70434208 C-98.96131955 269.70353017 -84.35652781 269.72264544 -69.75166256 269.75086658 C-54.72889852 269.77966426 -39.70618478 269.79340298 -24.68339247 269.79167902 C-16.26008102 269.79101732 -7.83687784 269.79641249 0.58640862 269.81803513 C7.76218674 269.83633816 14.93780757 269.84052031 22.11359905 269.82701628 C25.76755745 269.82053119 29.42121493 269.82020522 33.07514381 269.83772278 C63.44704242 269.97416353 89.13126374 265.52382976 111.69921875 243.33398438 C129.55344815 224.40684145 136.39803623 201.52662488 136.03125 175.88476562 C135.34192707 156.31423517 126.91723804 137.70028719 113.69921875 123.33398438 C112.99023438 122.55667969 112.28125 121.779375 111.55078125 120.97851562 C95.11078188 103.75977944 72.55461413 94.91189609 48.94140625 94.22460938 C45.68539859 94.18077865 45.68539859 94.18077865 42.69921875 95.33398438 C42.55226563 96.49671875 42.4053125 97.65945312 42.25390625 98.85742188 C39.29870358 120.57312939 32.36389502 138.94496256 18.69921875 156.33398438 C18.03792969 157.21957031 17.37664062 158.10515625 16.6953125 159.01757812 C11.96003864 164.95752049 11.96003864 164.95752049 8.48828125 165.99414062 C6.32421875 166.08398438 6.32421875 166.08398438 2.69921875 165.33398438 C0.65574471 162.26877331 0.21150487 160.98341828 0.83984375 157.40039062 C2.4004733 153.64778593 5.44516535 151.04063571 8.21875 148.13476562 C23.47207504 130.91171987 30.35488747 106.67458883 29.94921875 84.03320312 C28.04504125 55.85732667 15.6504583 32.10262905 -5.41796875 13.61523438 C-41.87765758 -15.2363351 -95.01283654 -14.40178322 -129.30078125 17.33398438 Z " fill="#000000" transform="translate(335.30078125,26.666015625)"/>
<path d="M0 0 C1.2527774 -0.00671722 2.50555481 -0.01343445 3.79629517 -0.02035522 C7.22219629 -0.03607121 10.64785491 -0.04270874 14.07377529 -0.0439868 C16.21835548 -0.04541184 18.36291052 -0.04968817 20.50748444 -0.05498123 C28.00142521 -0.07346839 35.49529499 -0.08165373 42.98925781 -0.08007812 C49.95458623 -0.07887794 56.91960417 -0.09995916 63.88485408 -0.13156545 C69.88085015 -0.15779564 75.87674526 -0.16844257 81.8727982 -0.16716731 C85.44683209 -0.16665953 89.02059004 -0.17223929 92.59456635 -0.19352341 C96.58669429 -0.21664977 100.5781356 -0.20734395 104.5703125 -0.1953125 C105.74052948 -0.20655151 106.91074646 -0.21779053 108.11642456 -0.22937012 C116.06533776 -0.16868917 123.69053846 0.81110798 129.79785156 6.32568359 C130.2296875 6.99470703 130.66152344 7.66373047 131.10644531 8.35302734 C131.56148437 9.02462891 132.01652344 9.69623047 132.48535156 10.38818359 C135.42233432 15.6660825 134.97177514 21.42536935 134.54394531 27.29052734 C132.30217906 33.7798507 127.63995921 38.2425204 121.54394531 41.29052734 C118.04264002 42.14936326 114.78050254 42.4193366 111.18182373 42.43096924 C110.11935928 42.43667938 109.05689484 42.44238953 107.9622345 42.44827271 C106.22909248 42.44994949 106.22909248 42.44994949 104.4609375 42.45166016 C103.23596054 42.45662506 102.01098358 42.46158997 100.74888611 42.46670532 C97.39536312 42.47879103 94.04190231 42.48626616 90.68836498 42.49071598 C88.58987093 42.49365367 86.49138226 42.49775979 84.39289093 42.50222015 C77.8174682 42.51588453 71.24205786 42.52555617 64.66662192 42.52942204 C57.09435559 42.53389933 49.52227008 42.55143622 41.9500587 42.58042264 C36.08489389 42.60208965 30.21977977 42.61212901 24.3545754 42.61346316 C20.85716997 42.61450767 17.35993476 42.62033942 13.86257172 42.63828278 C9.95649983 42.65793421 6.05065123 42.65345452 2.14453125 42.64697266 C0.42353462 42.66079483 0.42353462 42.66079483 -1.33222961 42.67489624 C-9.41527023 42.63297219 -15.85700543 41.53144481 -22.76855469 37.22802734 C-26.91920745 32.69126735 -29.23814162 27.8621757 -29.61621094 21.66552734 C-29.17350627 14.58225259 -26.91906492 9.29764813 -21.58105469 4.47802734 C-14.71944145 -0.32510192 -8.09521665 -0.00622693 0 0 Z " fill="#000000" transform="translate(276.4560546875,403.70947265625)"/>
<path d="M0 0 C0.98972305 -0.00846954 1.97944611 -0.01693909 2.99916077 -0.02566528 C6.25168925 -0.04895108 9.50374232 -0.05005941 12.75634766 -0.04882812 C15.03024482 -0.05593478 17.3041402 -0.06363452 19.57803345 -0.07189941 C24.33739205 -0.08532495 29.09658482 -0.08692161 33.85595703 -0.08105469 C39.9376213 -0.07516072 46.01848671 -0.10574767 52.09999657 -0.14617157 C56.79450729 -0.1720931 61.48882679 -0.1749219 66.1833992 -0.17127991 C68.42477043 -0.17296698 70.66615088 -0.18256949 72.90745163 -0.20042419 C76.0495133 -0.2227014 79.18997237 -0.2128667 82.33203125 -0.1953125 C83.2466362 -0.20857574 84.16124115 -0.22183899 85.1035614 -0.23550415 C91.85875813 -0.14835649 97.16811476 1.63215018 102.79541016 5.41992188 C108.04795416 10.90760304 109.16581955 16.21788967 109.06884766 23.56835938 C108.47706789 29.73977695 105.7889552 33.78400872 101.23291016 37.85742188 C97.7469525 40.70674584 94.86627511 41.54126355 90.39511108 41.58055115 C89.49526489 41.59059677 88.5954187 41.6006424 87.66830444 41.61099243 C86.68334991 41.61682343 85.69839539 41.62265442 84.68359375 41.62866211 C83.64422668 41.63844589 82.60485962 41.64822968 81.53399658 41.65830994 C78.08729331 41.68827271 74.64062893 41.70965377 71.19384766 41.72851562 C70.0163155 41.73508745 68.83878334 41.74165928 67.62556839 41.74843025 C61.39069063 41.78103021 55.15582998 41.8054777 48.92089844 41.82495117 C43.7643949 41.84275408 38.60843924 41.87755848 33.45214844 41.92749023 C27.22407112 41.9877307 20.99650131 42.01843283 14.76814651 42.02812386 C12.39751916 42.03667423 10.02690519 42.05548177 7.65644455 42.08486748 C4.33156294 42.12386008 1.00865049 42.12480548 -2.31640625 42.11694336 C-3.28921539 42.13694397 -4.26202454 42.15694458 -5.26431274 42.17755127 C-12.32294013 42.10291895 -16.89011188 40.08181641 -22.20458984 35.41992188 C-26.386651 30.46720774 -27.44622274 24.82319367 -27.20458984 18.41992188 C-26.11076139 12.57214666 -22.92034491 7.07949605 -18.20458984 3.41992188 C-11.95301446 0.60442836 -6.80889277 -0.0217211 0 0 Z " fill="#000000" transform="translate(235.20458984375,464.580078125)"/>
<path d="M0 0 C1.28392136 -0.00744736 1.28392136 -0.00744736 2.59378052 -0.01504517 C5.41759046 -0.02961661 8.24134423 -0.03646028 11.06518555 -0.04199219 C13.03427633 -0.04774759 15.00336711 -0.05350528 16.97245789 -0.05926514 C21.0989915 -0.06976073 25.22550571 -0.07561289 29.35205078 -0.07910156 C34.6277926 -0.08458444 39.9032761 -0.10861424 45.17893696 -0.13707352 C49.24625895 -0.15573848 53.31351917 -0.16090754 57.38088036 -0.16243744 C59.32525228 -0.16545557 61.26962333 -0.17345563 63.21395302 -0.18662262 C65.93970789 -0.20376454 68.66483743 -0.20178312 71.390625 -0.1953125 C72.1862233 -0.20452728 72.98182159 -0.21374207 73.80152893 -0.22323608 C81.63925778 -0.1652402 88.11440664 2.10360075 93.9128418 7.50488281 C98.15243103 12.26040089 98.95682455 17.53123927 98.7331543 23.67285156 C97.81093938 30.34842997 94.39363152 34.66939503 89.3659668 38.93457031 C83.94131446 42.30085655 78.57861154 42.4584455 72.40576172 42.45166016 C71.5220137 42.45837738 70.63826569 42.4650946 69.72773743 42.47201538 C66.81672486 42.49095639 63.90594335 42.49491767 60.99487305 42.49707031 C58.96234545 42.50350115 56.92981877 42.51022972 54.89729309 42.51724243 C50.63967748 42.52920561 46.38214295 42.53292426 42.12451172 42.53173828 C36.68400726 42.5315352 31.24402577 42.55883096 25.80364513 42.5932827 C21.60587706 42.6155826 17.40823421 42.61957486 13.21041298 42.61851883 C11.20545971 42.62087037 9.20050276 42.62966857 7.19560814 42.64518356 C4.38378249 42.66490521 1.57307635 42.65898126 -1.23876953 42.64697266 C-2.46649582 42.66383118 -2.46649582 42.66383118 -3.71902466 42.68103027 C-11.05577294 42.60189996 -17.08752116 40.51965902 -22.4855957 35.47363281 C-26.34459969 29.45812659 -28.48120874 23.62277304 -27.30981445 16.43066406 C-25.54817431 10.71271477 -22.19821183 5.78275681 -17.0480957 2.66113281 C-11.35765546 0.17803162 -6.14831082 0.00857327 0 0 Z " fill="#000000" transform="translate(186.610595703125,346.8388671875)"/>
<path d="M0 0 C1.39735382 -0.01441132 1.39735382 -0.01441132 2.82293701 -0.02911377 C3.8188385 -0.03336365 4.81473999 -0.03761353 5.84082031 -0.04199219 C6.87781067 -0.04769226 7.91480103 -0.05339233 8.98321533 -0.05926514 C11.17532334 -0.06869772 13.36744541 -0.07524219 15.55957031 -0.07910156 C18.89315886 -0.08879223 22.22612669 -0.11982662 25.55957031 -0.15136719 C27.69498334 -0.15789946 29.83040075 -0.16314905 31.96582031 -0.16699219 C32.95362488 -0.17933899 33.94142944 -0.19168579 34.95916748 -0.20440674 C42.46600749 -0.18054601 49.17634794 0.62393069 55.04394531 5.59863281 C60.94563356 12.71537452 62.0153111 17.88637444 61.16894531 27.16113281 C59.5887616 32.49425283 56.95155548 36.2263493 52.16894531 39.16113281 C45.57705441 42.16695695 39.99707937 42.6154144 32.80175781 42.59472656 C31.72699188 42.59996841 30.65222595 42.60521027 29.54489136 42.61061096 C27.28075012 42.6170087 25.01657555 42.61572346 22.75244141 42.60717773 C19.31123899 42.59867554 15.87170258 42.62745031 12.43066406 42.65917969 C10.22102914 42.66079227 8.01139131 42.66021308 5.80175781 42.65722656 C4.78477814 42.66846054 3.76779846 42.67969452 2.72000122 42.69126892 C-4.87887786 42.61811594 -12.27347831 41.37343314 -18.08496094 36.12597656 C-18.51679688 35.45695312 -18.94863281 34.78792969 -19.39355469 34.09863281 C-20.07611328 33.09123047 -20.07611328 33.09123047 -20.77246094 32.06347656 C-23.70944369 26.78557766 -23.25888451 21.02629081 -22.83105469 15.16113281 C-20.58928844 8.67180946 -15.92706858 4.20913976 -9.83105469 1.16113281 C-6.5126075 0.36044871 -3.40809994 0.0285715 0 0 Z " fill="#000000" transform="translate(423.8310546875,346.8388671875)"/>
<path d="M0 0 C1.52231987 -0.01429802 1.52231987 -0.01429802 3.07539368 -0.02888489 C4.16192734 -0.02797348 5.248461 -0.02706207 6.36791992 -0.02612305 C7.49606613 -0.03040817 8.62421234 -0.0346933 9.7865448 -0.03910828 C12.17116628 -0.04484557 14.55580526 -0.04535627 16.94042969 -0.04101562 C20.57476969 -0.03786229 24.20829027 -0.06130045 27.8425293 -0.08666992 C30.16349182 -0.08894374 32.48445651 -0.08964603 34.80541992 -0.08862305 C36.42611137 -0.10243767 36.42611137 -0.10243767 38.07954407 -0.11653137 C45.17621721 -0.07337788 51.32325759 0.44543525 57.02807617 5.10668945 C61.74455926 10.8273998 64.33393115 15.44164738 64.09838867 23.1262207 C63.29656827 28.63873596 61.02652236 33.55272812 56.78588867 37.2121582 C52.35080328 40.26127941 49.65728314 41.52206616 44.22631836 41.58105469 C43.11125916 41.59704208 41.99619995 41.61302948 40.84735107 41.62950134 C39.04575531 41.63754539 39.04575531 41.63754539 37.20776367 41.64575195 C35.3469516 41.65929466 35.3469516 41.65929466 33.44854736 41.67311096 C30.82257503 41.68762132 28.19656647 41.69650213 25.57055664 41.70019531 C22.88753741 41.70450036 20.20547895 41.72532913 17.52270508 41.76171875 C13.64659457 41.81061737 9.77165103 41.82598933 5.89526367 41.83325195 C4.10581329 41.86255043 4.10581329 41.86255043 2.2802124 41.8924408 C-4.79037707 41.85433284 -9.84808473 41.11641604 -15.21411133 36.2746582 C-20.05329763 30.7232133 -21.60831236 26.00025119 -21.48754883 18.64575195 C-20.72286155 12.01482085 -17.08358859 7.64652099 -12.09301758 3.5012207 C-8.17486997 0.94342788 -4.6496298 0.02410991 0 0 Z " fill="#000000" transform="translate(383.214111328125,464.725341796875)"/>
<path d="M0 0 C0.90298828 -0.01611328 1.80597656 -0.03222656 2.73632812 -0.04882812 C10.14490318 -0.05419277 15.52143041 1.32410834 21.8125 5.4375 C26.13013905 9.95139537 28.71391867 15.05633408 29 21.375 C28.11370913 29.35161785 25.91755999 33.6105523 19.79296875 38.8671875 C13.6109521 42.87304768 7.31040742 42.64771335 0.1875 42.625 C-0.81539063 42.64111328 -1.81828125 42.65722656 -2.8515625 42.67382812 C-10.36984008 42.67874846 -16.37002113 41.97098169 -22.25 36.875 C-27.34678063 30.90448555 -28.81497148 27.04983826 -28.7109375 19.1640625 C-28.05295555 12.30225073 -24.5914648 7.94232905 -19.51171875 3.5390625 C-13.3799303 -0.0868915 -6.92359863 -0.02460412 0 0 Z " fill="#000000" transform="translate(341.4375,346.6875)"/>
<path d="M0 0 C1.00289062 -0.01611328 2.00578125 -0.03222656 3.0390625 -0.04882812 C10.15615616 -0.05348591 16.18688565 0.44940129 21.8671875 5.1796875 C26.90650261 11.37635727 29.13855914 15.63968816 28.93359375 23.75390625 C28.13423886 30.38146895 24.67383249 34.76427715 19.796875 39.0859375 C13.72074969 42.51741834 6.98528279 42.65243254 0.1875 42.625 C-0.60720703 42.64111328 -1.40191406 42.65722656 -2.22070312 42.67382812 C-10.52904122 42.68058837 -17.81535894 40.76048968 -23.93359375 34.96875 C-28.1133367 30.16601014 -28.94272583 24.95078415 -28.71875 18.80078125 C-27.79653509 12.12520284 -24.37922722 7.80423779 -19.3515625 3.5390625 C-13.23935523 -0.25388826 -6.96183046 -0.02219971 0 0 Z " fill="#000000" transform="translate(195.375,403.6875)"/>
</svg>
