<?xml version="1.0" encoding="UTF-8"?>
<svg version="1.1" xmlns="http://www.w3.org/2000/svg" width="512" height="512">
<path d="M0 0 C2.48241819 2.28085432 4.85952155 4.64449155 7.22998047 7.04223633 C7.97119141 7.77313477 8.71240234 8.5040332 9.47607422 9.25708008 C15.55211519 15.61738028 21.13778876 24.00823414 24.03857422 32.37426758 C25.19825447 34.36481041 25.19825447 34.36481041 28.17919922 34.87817383 C29.41283203 35.05606445 30.64646484 35.23395508 31.91748047 35.41723633 C45.48884323 37.72540298 59.32860483 43.14086069 69.22998047 53.04223633 C71.52119778 53.07080206 71.52119778 53.07080206 74.14013672 52.68286133 C97.18548722 50.14438048 117.85687445 52.49479656 136.66748047 66.91723633 C151.08026189 79.37451475 160.73955806 94.9330336 163.22998047 114.04223633 C163.29654359 116.67813591 163.32565458 119.28372228 163.29248047 121.91723633 C163.28796875 122.6055957 163.28345703 123.29395508 163.27880859 124.00317383 C163.26714383 125.68289968 163.24921317 127.36258008 163.22998047 129.04223633 C164.11041016 129.3077832 164.99083984 129.57333008 165.89794922 129.84692383 C182.59790563 135.837764 193.94463035 150.03979275 201.60498047 165.41723633 C209.63676503 184.00189339 209.28443559 204.49850983 201.97998047 223.22973633 C193.59914679 241.89501488 179.65565317 255.52125972 160.47814149 262.89897531 C150.11176852 266.54764606 140.18313333 267.48121693 129.25920105 267.42991638 C127.79095136 267.43409891 126.32270491 267.43958143 124.85446435 267.44623619 C120.85569984 267.46058925 116.8571432 267.45647814 112.8583678 267.44906938 C108.53171388 267.44431465 104.20510345 267.45686788 99.87846375 267.46708679 C91.4158786 267.48423553 82.95336783 267.48512292 74.49076983 267.47987389 C67.60810499 267.47582339 60.72546204 267.47728617 53.84279823 267.48262215 C52.37032673 267.48374478 52.37032673 267.48374478 50.86810834 267.48489009 C48.87352797 267.48642166 46.87894762 267.48796001 44.88436726 267.48950506 C26.20200418 267.50321606 7.51968302 267.4978024 -11.1626791 267.48631985 C-28.22918168 267.47639037 -45.2955758 267.48932571 -62.36206166 267.51325404 C-79.91391435 267.5376762 -97.4657166 267.54724516 -115.01758593 267.54060131 C-124.86040221 267.53711583 -134.70313512 267.53929663 -144.54593849 267.55685234 C-152.92537882 267.57161341 -161.30467708 267.57215898 -169.68411473 267.55478143 C-173.95351298 267.54630085 -178.22265787 267.54404926 -182.49204254 267.55943298 C-186.41110485 267.57337874 -190.32969912 267.56839187 -194.24873503 267.54919375 C-195.65575375 267.54546342 -197.06281087 267.54826856 -198.46979509 267.5588054 C-211.36369091 267.64839213 -224.47522062 265.54063588 -236.02001953 259.47973633 C-237.00023071 258.97700195 -237.00023071 258.97700195 -238.00024414 258.46411133 C-244.93517605 254.71266275 -250.33120051 249.68156481 -255.77001953 244.04223633 C-256.43388672 243.40930664 -257.09775391 242.77637695 -257.78173828 242.12426758 C-270.28702443 229.3941673 -275.08251953 210.13936938 -275.08251953 192.87060547 C-274.72864459 174.01671148 -266.50615917 155.84070559 -253.29248047 142.46459961 C-248.88290191 138.34493882 -243.9375652 135.1388686 -238.77001953 132.04223633 C-237.95017578 131.54079102 -237.13033203 131.0393457 -236.28564453 130.52270508 C-226.66173668 125.17788377 -214.73075174 122.25932688 -203.77001953 123.04223633 C-203.74423828 122.2662207 -203.71845703 121.49020508 -203.69189453 120.69067383 C-202.64954218 100.83859952 -194.8525276 83.96662164 -180.77001953 70.04223633 C-166.98658039 58.01377012 -149.95607429 51.79841324 -131.77001953 51.04223633 C-131.57408203 50.07286133 -131.37814453 49.10348633 -131.17626953 48.10473633 C-127.96065976 33.29129501 -122.11870947 20.28998066 -111.77001953 9.04223633 C-111.02107422 8.20176758 -110.27212891 7.36129883 -109.50048828 6.49536133 C-81.82950129 -23.0084374 -30.92679145 -27.16308649 0 0 Z " fill="#CBC9C9" transform="translate(289.77001953125,24.957763671875)"/>
<path d="M0 0 C6.30871285 4.4777631 11.35073683 10.52886651 13.1484375 18.19140625 C14.81766288 28.04709352 13.23483559 35.38798099 7.72265625 43.65625 C7.35140625 44.378125 6.98015625 45.1 6.59765625 45.84375 C7.85623915 49.34875702 10.07996871 51.53631044 12.72265625 54.09375 C13.80933594 55.15335938 13.80933594 55.15335938 14.91796875 56.234375 C15.47226563 56.76546875 16.0265625 57.2965625 16.59765625 57.84375 C20.41082103 56.25418716 22.97044025 53.83614303 25.91015625 50.96875 C26.81378906 50.10507813 27.71742188 49.24140625 28.6484375 48.3515625 C30.82339596 46.10882553 30.82339596 46.10882553 30.51953125 43.83984375 C30.2153125 43.18113281 29.91109375 42.52242187 29.59765625 41.84375 C29.27667969 41.04839844 28.95570313 40.25304687 28.625 39.43359375 C28.08552734 38.12068359 28.08552734 38.12068359 27.53515625 36.78125 C24.41681278 28.19152734 24.48919516 20.56047978 28.2734375 12.1953125 C32.64265964 4.43639884 39.11249517 -1.32786297 47.59765625 -4.15625 C58.19646773 -5.05851951 66.89612812 -5.07019765 75.59765625 1.84375 C81.24213959 6.79988171 84.61422378 12.59990968 86.59765625 19.84375 C86.59765625 21.16375 86.59765625 22.48375 86.59765625 23.84375 C87.54640625 23.905625 88.49515625 23.9675 89.47265625 24.03125 C97.52367481 25.23727302 104.12355408 29.34997042 109.125 35.6875 C114.2227929 43.15164239 115.71775462 49.81367857 114.59765625 58.84375 C112.50432111 68.13369882 107.99068832 74.4369088 100.53515625 80.21875 C95.02059684 83.26935733 89.98160448 84.23208109 83.72265625 84.21875 C82.66365112 84.2185083 82.66365112 84.2185083 81.58325195 84.21826172 C74.33065007 84.05915834 70.51416969 81.78809229 64.59765625 77.84375 C60.42089777 78.01082034 58.1238638 80.85040737 55.28515625 83.65625 C53.92970703 84.96529297 53.92970703 84.96529297 52.546875 86.30078125 C50.42418099 88.57497059 50.42418099 88.57497059 50.48828125 90.83984375 C52.10445418 93.75919837 54.26084044 95.78554744 56.66015625 98.09375 C57.57925781 98.98578125 58.49835938 99.8778125 59.4453125 100.796875 C60.15558594 101.47234375 60.86585938 102.1478125 61.59765625 102.84375 C64.72717353 101.62792708 67.73914317 100.31980674 70.72265625 98.78125 C77.5227894 95.27534478 83.99809596 94.81056054 91.484375 96.4921875 C100.30449743 99.37072118 106.11947295 104.03415241 111.09765625 111.84375 C114.92926165 119.45461646 114.81899778 127.54412767 112.9296875 135.7421875 C110.32474892 143.13611795 105.63415475 149.43999884 98.72265625 153.28125 C94.48055027 155.16940305 90.20130756 155.630618 85.59765625 155.84375 C85.55640625 157.1225 85.51515625 158.40125 85.47265625 159.71875 C84.69746795 166.46182627 81.55170958 172.04826414 76.6328125 176.703125 C68.68160521 182.86874447 60.69301165 185.98148053 50.59765625 184.84375 C42.85986345 182.7475987 35.73195726 178.81386462 30.72265625 172.46875 C27.85455146 165.77650549 27.25663516 159.40606494 27.28515625 152.21875 C27.26904297 151.39890625 27.25292969 150.5790625 27.23632812 149.734375 C27.23214447 144.52990564 28.21241437 141.53174701 30.59765625 136.84375 C29.64834686 132.89582841 26.30532714 130.35378831 23.47265625 127.59375 C22.10753906 126.25570312 22.10753906 126.25570312 20.71484375 124.890625 C20.01617187 124.21515625 19.3175 123.5396875 18.59765625 122.84375 C15.14563986 124.32096422 12.94803689 126.28169001 10.34765625 128.96875 C9.28804687 130.05542969 9.28804687 130.05542969 8.20703125 131.1640625 C7.6759375 131.71835938 7.14484375 132.27265625 6.59765625 132.84375 C7.8742511 136.23209521 9.39659084 139.22555643 11.22265625 142.34375 C14.79085522 149.50138723 14.7987581 156.44147362 12.7109375 164.09375 C9.20263314 173.41814697 3.77216579 179.74758147 -5.32421875 183.9609375 C-12.80804978 186.10731543 -22.79314903 186.54756641 -29.96484375 183.28125 C-31.703125 182.16796875 -31.703125 182.16796875 -33.40234375 180.84375 C-34.09714844 180.33457031 -34.79195312 179.82539063 -35.5078125 179.30078125 C-40.37124105 175.42952756 -43.10396475 171.57760077 -45.40234375 165.84375 C-45.81484375 164.93625 -46.22734375 164.02875 -46.65234375 163.09375 C-47.40234375 160.84375 -47.40234375 160.84375 -47.40234375 156.84375 C-48.51609375 156.8025 -49.62984375 156.76125 -50.77734375 156.71875 C-58.65424368 155.71318831 -65.41092218 150.79410726 -70.22265625 144.63671875 C-75.08032538 137.25370508 -76.56112222 128.53458854 -75.40234375 119.84375 C-72.87752921 112.52178784 -69.27155939 105.79285373 -62.40234375 101.84375 C-59.45405121 100.58447929 -56.50485929 99.64088431 -53.40234375 98.84375 C-52.7578125 98.66070312 -52.11328125 98.47765625 -51.44921875 98.2890625 C-43.63590394 96.5892192 -36.99793224 97.92585592 -29.8125 101.1640625 C-27.46509334 102.0566976 -27.46509334 102.0566976 -25.3828125 101.25 C-22.86520085 99.46234675 -20.80342638 97.43309977 -18.65234375 95.21875 C-17.853125 94.40148437 -17.05390625 93.58421875 -16.23046875 92.7421875 C-15.6271875 92.11570312 -15.02390625 91.48921875 -14.40234375 90.84375 C-17.91131644 86.65951108 -21.4829491 82.64786834 -25.40234375 78.84375 C-26.36140625 79.2459375 -26.36140625 79.2459375 -27.33984375 79.65625 C-28.85578125 80.2440625 -28.85578125 80.2440625 -30.40234375 80.84375 C-31.02238281 81.10800781 -31.64242187 81.37226563 -32.28125 81.64453125 C-39.64298415 84.50516828 -47.65276915 85.42911625 -55.24609375 82.89453125 C-57.76608715 81.69146211 -60.06908179 80.3752183 -62.40234375 78.84375 C-62.98757812 78.47121094 -63.5728125 78.09867187 -64.17578125 77.71484375 C-70.00491669 73.46874763 -73.87736835 65.77545635 -75.40234375 58.84375 C-76.40902623 49.08667364 -74.40075865 41.21329316 -68.21484375 33.53125 C-62.38895295 27.36925012 -55.5976141 24.48280407 -47.40234375 22.84375 C-47.19609375 21.544375 -46.98984375 20.245 -46.77734375 18.90625 C-44.79504047 10.19778662 -39.69563563 4.5793704 -32.74609375 -0.74609375 C-22.6114095 -6.84379544 -9.97517801 -5.69242998 0 0 Z " fill="#6A322D" transform="translate(236.40234375,86.15625)"/>
<path d="M0 0 C2.48241819 2.28085432 4.85952155 4.64449155 7.22998047 7.04223633 C7.97119141 7.77313477 8.71240234 8.5040332 9.47607422 9.25708008 C15.55211519 15.61738028 21.13778876 24.00823414 24.03857422 32.37426758 C25.19825447 34.36481041 25.19825447 34.36481041 28.17919922 34.87817383 C29.41283203 35.05606445 30.64646484 35.23395508 31.91748047 35.41723633 C45.48884323 37.72540298 59.32860483 43.14086069 69.22998047 53.04223633 C71.52119778 53.07080206 71.52119778 53.07080206 74.14013672 52.68286133 C97.18548722 50.14438048 117.85687445 52.49479656 136.66748047 66.91723633 C151.08026189 79.37451475 160.73955806 94.9330336 163.22998047 114.04223633 C163.29654359 116.67813591 163.32565458 119.28372228 163.29248047 121.91723633 C163.28796875 122.6055957 163.28345703 123.29395508 163.27880859 124.00317383 C163.26714383 125.68289968 163.24921317 127.36258008 163.22998047 129.04223633 C164.11041016 129.3077832 164.99083984 129.57333008 165.89794922 129.84692383 C182.59790563 135.837764 193.94463035 150.03979275 201.60498047 165.41723633 C209.63676503 184.00189339 209.28443559 204.49850983 201.97998047 223.22973633 C193.59914679 241.89501488 179.65565317 255.52125972 160.47814149 262.89897531 C150.11176852 266.54764606 140.18313333 267.48121693 129.25920105 267.42991638 C127.79095136 267.43409891 126.32270491 267.43958143 124.85446435 267.44623619 C120.85569984 267.46058925 116.8571432 267.45647814 112.8583678 267.44906938 C108.53171388 267.44431465 104.20510345 267.45686788 99.87846375 267.46708679 C91.4158786 267.48423553 82.95336783 267.48512292 74.49076983 267.47987389 C67.60810499 267.47582339 60.72546204 267.47728617 53.84279823 267.48262215 C52.37032673 267.48374478 52.37032673 267.48374478 50.86810834 267.48489009 C48.87352797 267.48642166 46.87894762 267.48796001 44.88436726 267.48950506 C26.20200418 267.50321606 7.51968302 267.4978024 -11.1626791 267.48631985 C-28.22918168 267.47639037 -45.2955758 267.48932571 -62.36206166 267.51325404 C-79.91391435 267.5376762 -97.4657166 267.54724516 -115.01758593 267.54060131 C-124.86040221 267.53711583 -134.70313512 267.53929663 -144.54593849 267.55685234 C-152.92537882 267.57161341 -161.30467708 267.57215898 -169.68411473 267.55478143 C-173.95351298 267.54630085 -178.22265787 267.54404926 -182.49204254 267.55943298 C-186.41110485 267.57337874 -190.32969912 267.56839187 -194.24873503 267.54919375 C-195.65575375 267.54546342 -197.06281087 267.54826856 -198.46979509 267.5588054 C-211.36369091 267.64839213 -224.47522062 265.54063588 -236.02001953 259.47973633 C-237.00023071 258.97700195 -237.00023071 258.97700195 -238.00024414 258.46411133 C-244.93517605 254.71266275 -250.33120051 249.68156481 -255.77001953 244.04223633 C-256.43388672 243.40930664 -257.09775391 242.77637695 -257.78173828 242.12426758 C-270.28702443 229.3941673 -275.08251953 210.13936938 -275.08251953 192.87060547 C-274.72864459 174.01671148 -266.50615917 155.84070559 -253.29248047 142.46459961 C-248.88290191 138.34493882 -243.9375652 135.1388686 -238.77001953 132.04223633 C-237.95017578 131.54079102 -237.13033203 131.0393457 -236.28564453 130.52270508 C-226.66173668 125.17788377 -214.73075174 122.25932688 -203.77001953 123.04223633 C-203.74423828 122.2662207 -203.71845703 121.49020508 -203.69189453 120.69067383 C-202.64954218 100.83859952 -194.8525276 83.96662164 -180.77001953 70.04223633 C-166.98658039 58.01377012 -149.95607429 51.79841324 -131.77001953 51.04223633 C-131.57408203 50.07286133 -131.37814453 49.10348633 -131.17626953 48.10473633 C-127.96065976 33.29129501 -122.11870947 20.28998066 -111.77001953 9.04223633 C-111.02107422 8.20176758 -110.27212891 7.36129883 -109.50048828 6.49536133 C-81.82950129 -23.0084374 -30.92679145 -27.16308649 0 0 Z M-103.77001953 18.04223633 C-112.32447727 28.17902151 -117.08551406 40.17450676 -119.77001953 53.04223633 C-121.69662504 61.96884183 -121.69662504 61.96884183 -122.77001953 63.04223633 C-124.11717778 63.15086908 -125.46941779 63.19800669 -126.82080078 63.21801758 C-136.73408715 63.4648728 -145.60856437 63.84491766 -154.77001953 68.04223633 C-155.69943359 68.46504883 -156.62884766 68.88786133 -157.58642578 69.32348633 C-173.2949657 77.18868017 -184.10962044 90.85905261 -189.91064453 107.26879883 C-191.17710343 112.82970473 -191.16278078 118.3266962 -191.24853516 124.01098633 C-191.27496094 124.87208008 -191.30138672 125.73317383 -191.32861328 126.62036133 C-191.34206787 127.39798828 -191.35552246 128.17561523 -191.36938477 128.97680664 C-191.87652926 131.59133585 -192.63196709 132.48170555 -194.77001953 134.04223633 C-197.61146267 134.32167432 -200.3015262 134.45251046 -203.14501953 134.47973633 C-220.52279125 135.0717855 -234.63434671 141.5840207 -246.77001953 154.04223633 C-252.65741219 160.42540942 -256.73606684 166.90572683 -259.77001953 175.04223633 C-260.08970703 175.89301758 -260.40939453 176.74379883 -260.73876953 177.62036133 C-265.56478107 192.54524887 -262.98185714 208.41924289 -256.27392578 222.31567383 C-249.71034044 234.2153688 -240.9972682 243.10936263 -228.77001953 249.04223633 C-228.03912109 249.41219727 -227.30822266 249.7821582 -226.55517578 250.16333008 C-216.41052737 255.03062185 -206.33789439 255.33577518 -195.24024963 255.30293274 C-193.78340219 255.30595775 -192.32655633 255.30984897 -190.86971325 255.31452531 C-186.88876027 255.32476889 -182.90789773 255.32263283 -178.92693746 255.31834471 C-174.62487603 255.31587088 -170.32283599 255.32489974 -166.02078247 255.3323822 C-157.60158757 255.34511254 -149.18242459 255.34692501 -140.76322169 255.34458194 C-133.918585 255.34279693 -127.07395797 255.34455235 -120.22932243 255.34880638 C-118.76656493 255.34969916 -118.76656493 255.34969916 -117.27425678 255.35060998 C-115.29303416 255.35182177 -113.31181154 255.3530359 -111.33058893 255.35425236 C-92.7633304 255.36512127 -74.19609004 255.36296835 -55.62883049 255.35686751 C-38.65254281 255.35169771 -21.6763125 255.36295665 -4.70003618 255.38196573 C12.74434038 255.4013488 30.18868981 255.40959939 47.6330772 255.40584248 C57.42155125 255.40393131 67.20997645 255.40640995 76.9984417 255.42055702 C85.33049827 255.43247767 93.66247592 255.43386794 101.99453359 255.42176685 C106.24300116 255.41588328 110.49132443 255.41476433 114.73978233 255.42676926 C118.63395782 255.43764498 122.52786881 255.43450479 126.42203201 255.42050757 C127.82568791 255.41786531 129.22936465 255.42021232 130.63300007 255.42824344 C138.99848141 255.47276025 146.29430802 254.73683638 154.22998047 252.04223633 C155.10529354 251.75227683 155.98060661 251.46231733 156.88244432 251.16357118 C171.12580033 246.25607582 182.39634761 235.07264745 189.32080078 221.94018555 C196.50576998 206.94127294 197.26622239 191.37434368 192.48388672 175.51098633 C188.95779967 165.75657729 183.62933683 158.27584711 176.22998047 151.04223633 C175.7243457 150.5468335 175.21871094 150.05143066 174.69775391 149.54101562 C171.59759092 146.67661834 168.83083464 144.71042423 164.86279297 143.22583008 C160.18547485 141.46973611 155.68431721 139.77955846 152.22998047 136.04223633 C150.10295336 130.20094435 150.94258141 123.71671174 151.20849609 117.61157227 C151.30433112 106.15057493 145.73357994 96.10523711 139.22998047 87.04223633 C138.69630859 86.29329102 138.16263672 85.5443457 137.61279297 84.77270508 C128.74222239 73.58519442 114.28556991 65.81693196 100.22998047 64.04223633 C91.01416114 63.52638853 82.91410103 63.90882538 73.99951172 66.48364258 C70.86261519 67.11633116 69.24705533 67.1026701 66.22998047 66.04223633 C64.13692211 64.53216297 62.1968097 63.01136095 60.22998047 61.35473633 C47.01567068 50.80357198 31.75393825 46.91112741 15.22998047 45.04223633 C15.07142578 44.50856445 14.91287109 43.97489258 14.74951172 43.42504883 C11.42257034 32.8008935 6.56206882 24.42379187 -0.77001953 16.04223633 C-1.30240234 15.41446289 -1.83478516 14.78668945 -2.38330078 14.13989258 C-12.17502256 3.4248819 -27.85561166 -4.24002826 -42.34350586 -5.11279297 C-67.29731179 -6.11309017 -86.02632328 -0.61285363 -103.77001953 18.04223633 Z " fill="#682F2A" transform="translate(289.77001953125,24.957763671875)"/>
<path d="M0 0 C5.07667801 2.8161195 8.66406893 6.68724317 10.6953125 12.1484375 C11.15738284 15.32317938 11.3799127 18.40286706 11.45703125 21.609375 C11.43881229 24.3172336 11.43881229 24.3172336 13.6953125 26.1484375 C15.89576028 26.46031199 18.10680715 26.69936421 20.3203125 26.8984375 C26.82119427 27.74521902 31.27011675 29.21049867 35.6953125 34.1484375 C39.62223357 39.6095975 39.4307846 44.63908675 38.6953125 51.1484375 C37.35440951 56.2927823 35.07591799 59.20569232 30.6328125 62.0859375 C25.91241735 64.75871403 22.15426425 65.59589256 16.6953125 65.1484375 C11.96072249 63.44363177 7.87576062 61.12399765 4.6953125 57.1484375 C4.6953125 56.4884375 4.6953125 55.8284375 4.6953125 55.1484375 C-0.43956423 54.51633164 -0.43956423 54.51633164 -5.1449585 56.23650169 C-7.04986003 57.87504862 -8.79992194 59.59687389 -10.546875 61.40307617 C-11.22103958 62.06804108 -11.89520416 62.73300598 -12.58979797 63.41812134 C-14.80656327 65.61501553 -16.99316857 67.83943802 -19.1796875 70.06640625 C-20.71386317 71.60281189 -22.24944753 73.13781207 -23.78637695 74.67146301 C-26.99970466 77.88653275 -30.19890718 81.11483406 -33.38818359 84.35375977 C-37.47982129 88.5078411 -41.59966186 92.63250242 -45.72973633 96.74833202 C-48.90150542 99.91369597 -52.06056813 103.09149031 -55.21563721 106.27349281 C-56.73065577 107.79940086 -58.2490025 109.32201183 -59.77069092 110.84126854 C-61.89235854 112.96436042 -63.99700717 115.10296269 -66.09765625 117.24682617 C-66.73028885 117.87405075 -67.36292145 118.50127533 -68.01472473 119.14750671 C-71.35835495 122.52930892 -71.35835495 122.52930892 -72.79760742 126.94868469 C-72.1183523 129.97999526 -70.72575926 131.15591242 -68.4296875 133.2109375 C-64.8368344 136.46253395 -62.62348002 138.76120053 -61.96875 143.6640625 C-61.87733942 150.06280316 -62.48697771 154.88820544 -66.3046875 160.1484375 C-70.62895752 164.47270752 -75.2506094 166.19571122 -81.3046875 166.4609375 C-86.58432309 166.30003432 -89.9802942 164.25723189 -93.9921875 160.8984375 C-98.9198903 155.0384666 -99.65154103 149.96223721 -99.8984375 142.50390625 C-100.0325 141.72660156 -100.1665625 140.94929687 -100.3046875 140.1484375 C-103.70043771 137.88460403 -105.12627173 137.90395802 -109.1171875 137.7734375 C-115.12395802 137.3464502 -118.54165981 136.10019659 -122.734375 131.62109375 C-127.27519751 126.37477621 -127.70107595 123.08247557 -127.66015625 116.2734375 C-127.14168408 111.71544038 -125.37095951 108.51701801 -122.3046875 105.1484375 C-115.93092157 100.89926021 -107.71451405 101.49692872 -100.3046875 102.1484375 C-96.89293781 103.44085974 -94.86985059 105.58327441 -92.3046875 108.1484375 C-87.17899845 108.17944557 -84.72280048 106.16447412 -81.23168945 102.77529907 C-80.61583984 102.1524704 -79.99999023 101.52964172 -79.36547852 100.88793945 C-78.69975327 100.23418839 -78.03402802 99.58043732 -77.34812927 98.90687561 C-75.15528669 96.74618818 -72.98141159 94.56752957 -70.80859375 92.38671875 C-69.29078285 90.87735532 -67.77237731 89.36858964 -66.25340271 87.86039734 C-63.0752226 84.69860709 -59.90676722 81.52744136 -56.74438477 78.34985352 C-52.68670295 74.2748612 -48.60240091 70.22777645 -44.5099802 66.18771076 C-41.36908831 63.07985617 -38.24454444 59.95596503 -35.12455559 56.8271389 C-33.62482615 55.32776997 -32.1196023 53.8338763 -30.60888863 52.34557533 C-28.50149028 50.2653251 -26.41752293 48.16410621 -24.33813477 46.0559082 C-23.70811554 45.44320068 -23.07809631 44.83049316 -22.4289856 44.19921875 C-18.95178124 40.68963335 -18.95178124 40.68963335 -18.2752533 35.90812683 C-19.61485572 32.31694391 -21.79717391 30.0229043 -24.3046875 27.1484375 C-26.99863133 22.53024808 -27.05688824 17.34258152 -26.3046875 12.1484375 C-24.27173296 6.70201046 -20.670911 2.80771997 -15.609375 0 C-10.42474152 -1.91567813 -5.18463348 -1.91567813 0 0 Z " fill="#E3E2E2" transform="translate(300.3046875,93.8515625)"/>
<path d="M0 0 C3.23855769 1.41111776 5.27437065 3.088376 7.6796875 5.66015625 C8.36160156 6.37107422 9.04351562 7.08199219 9.74609375 7.81445312 C11.16363272 9.31132225 12.57512911 10.81393728 13.98046875 12.32226562 C18.07762678 16.57320718 18.07762678 16.57320718 23.28515625 19.19921875 C26.01653404 19.22747365 26.01653404 19.22747365 27.94140625 17.671875 C28.47636719 17.03765625 29.01132812 16.4034375 29.5625 15.75 C30.15675781 15.10417969 30.75101562 14.45835937 31.36328125 13.79296875 C31.90339844 13.20128906 32.44351563 12.60960937 33 12 C37.06456318 8.49995948 41.03484803 8.48892847 46.21484375 8.65625 C51.27106545 9.2802998 55.10921841 10.92532694 58.56640625 14.71875 C62.62074372 20.17073657 63.97415427 25.23564786 63 32 C60.24382301 38.51875886 55.54774217 43.26414269 49 46 C46.94553041 46.26118421 44.88011991 46.44413443 42.8125 46.5625 C39.08992543 46.46789478 39.08992543 46.46789478 36 48 C35.8932691 49.85296708 35.81500274 51.70760024 35.75 53.5625 C35.18612485 60.9721719 32.82970983 65.31177566 27.5 70.375 C22.17906792 73.83360585 17.30848563 75.05840041 11 74 C7.15307043 72.23408864 3.98668387 69.98668387 1 67 C-1.28602408 59.88792508 -2.40531515 52.68058729 0.3125 45.5625 C2 43 2 43 3.6875 41.5625 C5.40900158 39.51309336 5.65868197 37.73948026 5.60864258 35.09692383 C4.19933095 30.2414976 -0.41196836 26.90540336 -4 23.5625 C-4.85851562 22.73556641 -5.71703125 21.90863281 -6.6015625 21.05664062 C-8.71947788 19.02108862 -10.85194654 17.00364384 -13 15 C-11.16307611 10.99625569 -8.50882084 8.28042066 -5.375 5.25 C-4.859375 4.74339844 -4.34375 4.23679688 -3.8125 3.71484375 C-2.54616661 2.47196098 -1.2736856 1.23534724 0 0 Z " fill="#E3E2E2" transform="translate(276,185)"/>
<path d="M0 0 C5.05547494 2.76620327 9.05138707 6.45723255 11.3125 11.8125 C12.27056879 18.56571662 11.36858861 24.24837845 7.3125 29.8125 C6.425625 30.51375 5.53875 31.215 4.625 31.9375 C2.1267583 33.67786758 2.1267583 33.67786758 1.0625 36.5625 C1.46364933 41.77744135 4.7073353 44.2436899 8.3125 47.8125 C9.28596319 48.79738015 10.25857213 49.78310514 11.23046875 50.76953125 C13.90425761 53.47140613 16.60268311 56.14678501 19.3125 58.8125 C14.90406563 64.10262124 10.23690206 69.00058428 5.3125 73.8125 C1.88602928 70.99517963 -1.31786762 68.20702709 -4.35546875 64.96484375 C-4.82299561 64.46702393 -5.29052246 63.9692041 -5.7722168 63.45629883 C-7.14260926 61.98567411 -8.49355298 60.49700039 -9.84375 59.0078125 C-12.57529353 56.52412398 -12.57529353 56.52412398 -16.296875 56.30859375 C-19.81425251 56.83133764 -20.99461157 57.27802957 -23.4375 59.75 C-27.16064872 63.42965399 -30.18114103 64.03054117 -35.375 64.25 C-40.85963041 64.19694432 -43.97358742 63.22407205 -48.0625 59.578125 C-51.76439682 55.55587172 -53.88728099 51.91315991 -54.125 46.3125 C-53.75382982 39.67642705 -51.597706 35.37834808 -46.6875 30.9375 C-41.52814238 26.57940625 -36.85920696 26.53386162 -30.3046875 26.09375 C-27.76336139 26.09753015 -27.76336139 26.09753015 -26.6875 24.8125 C-26.5284994 22.91921507 -26.41052167 21.02241951 -26.3125 19.125 C-25.70902846 11.40787908 -23.6205333 6.91766819 -17.6875 1.8125 C-11.72896473 -2.02744495 -6.54108981 -2.10645265 0 0 Z " fill="#E3E3E3" transform="translate(226.6875,94.1875)"/>
<path d="M0 0 C6.82928716 0.1212979 11.28802541 1.17800352 16.3112793 5.96313477 C21.81452258 11.95003601 23.05743757 17.25507798 22.8894043 25.31079102 C22.26580471 31.38101992 19.76925882 35.4649581 15.39331055 39.62719727 C7.41682628 45.67775148 -1.1716277 45.74708125 -10.86181641 45.68701172 C-12.19654117 45.68944425 -13.5312641 45.69316802 -14.86598206 45.69807434 C-18.4648753 45.70741944 -22.06349357 45.69811464 -25.6623652 45.68474221 C-29.43744172 45.67336926 -33.21250586 45.67753942 -36.9875946 45.67948914 C-43.31973735 45.68036973 -49.65177253 45.66933646 -55.98388672 45.65087891 C-63.30206271 45.62966911 -70.62008179 45.62621249 -77.93828231 45.63244087 C-84.99000067 45.63813468 -92.04166385 45.63249161 -99.09337425 45.62126732 C-102.09049692 45.61662622 -105.08758579 45.6157453 -108.08471107 45.61785316 C-112.26440282 45.62008615 -116.44387455 45.60562984 -120.62353516 45.58935547 C-121.86671509 45.59183289 -123.10989502 45.5943103 -124.39074707 45.59686279 C-125.52756424 45.58977798 -126.66438141 45.58269318 -127.83564758 45.57539368 C-128.82318181 45.57334081 -129.81071604 45.57128794 -130.82817554 45.56917286 C-133.52635114 45.30417242 -135.15289075 44.78106321 -137.41918945 43.31469727 C-138.81853959 40.515997 -138.6718435 38.40970934 -138.41918945 35.31469727 C-137.25144768 33.64694977 -137.25144768 33.64694977 -135.41918945 32.31469727 C-132.90881538 31.93831635 -132.90881538 31.93831635 -129.85305786 31.93615723 C-128.69500641 31.92795456 -127.53695496 31.91975189 -126.34381104 31.91130066 C-124.43616974 31.92052299 -124.43616974 31.92052299 -122.48999023 31.92993164 C-121.13806703 31.92582688 -119.78614737 31.92036657 -118.43423462 31.91365051 C-115.52202917 31.90191739 -112.61001329 31.89944403 -109.69778824 31.90400696 C-105.09219929 31.91080968 -100.48686024 31.89496026 -95.88131714 31.87561035 C-86.10228808 31.83772638 -76.32328064 31.82495365 -66.54418945 31.81469727 C-55.99411798 31.80362658 -45.44416131 31.78827366 -34.89416873 31.7439847 C-30.31678981 31.72562756 -25.73969585 31.72173649 -21.1622889 31.72891998 C-18.31254792 31.7304426 -15.46294926 31.71965302 -12.61324692 31.70554161 C-10.66404407 31.6996352 -8.71481387 31.70864058 -6.765625 31.71809387 C-5.6019339 31.7098912 -4.4382428 31.70168854 -3.23928833 31.6932373 C-1.72555728 31.69216854 -1.72555728 31.69216854 -0.1812458 31.69107819 C3.06023058 31.24936748 4.95054971 30.2303116 7.58081055 28.31469727 C9.17826934 25.11977968 9.08897897 21.78260337 8.58081055 18.31469727 C6.37340374 15.3461157 5.09483682 14.48603936 1.58081055 13.31469727 C-1.48165557 13.16157396 -4.54132294 13.0617038 -7.60668945 12.98657227 C-10.41918945 12.31469727 -10.41918945 12.31469727 -12.34106445 9.97094727 C-13.41918945 7.31469727 -13.41918945 7.31469727 -12.66918945 4.06469727 C-10.17066154 -1.43206415 -5.40343673 0.00503791 0 0 Z " fill="#672E29" transform="translate(179.419189453125,317.685302734375)"/>
<path d="M0 0 C6.46110613 2.58886787 10.51280038 6.93966325 13.59375 13.1015625 C14.95809867 20.1961756 15.34487706 27.09167645 11.61328125 33.5 C7.23590494 39.31197863 2.45040561 43.05111077 -4.78125 44.3515625 C-9.24747377 44.65182301 -13.70536464 44.64531163 -18.18041992 44.64208984 C-19.53455473 44.64808129 -20.88868613 44.65488825 -22.24281311 44.66244507 C-25.90372589 44.68003986 -29.56454507 44.6847974 -33.22549605 44.68607664 C-35.51392504 44.68750137 -37.80233044 44.69177684 -40.09075356 44.69707108 C-48.07703786 44.71554275 -56.06325558 44.72374441 -64.04956055 44.72216797 C-71.49160347 44.72096413 -78.93335753 44.74212093 -86.37532729 44.7736553 C-92.77124558 44.79979081 -99.16706926 44.81053657 -105.56304055 44.80925715 C-109.38054704 44.80874714 -113.19779603 44.81445302 -117.01524925 44.83561325 C-120.6014864 44.85495253 -124.18721897 44.85515035 -127.77347374 44.84057999 C-129.7168967 44.83748727 -131.66031949 44.85419441 -133.60366821 44.87145996 C-134.76020401 44.86307098 -135.91673981 44.85468201 -137.10832214 44.84603882 C-138.61564297 44.84767312 -138.61564297 44.84767312 -140.15341473 44.84934044 C-143.53126024 44.20949174 -144.74142485 43.07995744 -146.78125 40.3515625 C-146.71875 36.7265625 -146.71875 36.7265625 -145.78125 33.3515625 C-142.37710337 31.08213141 -141.20805963 31.10292073 -137.21511841 31.10673523 C-136.05706696 31.10279755 -134.8990155 31.09885986 -133.70587158 31.09480286 C-132.43411072 31.10049789 -131.16234985 31.10619293 -129.85205078 31.11206055 C-128.50013117 31.11094774 -127.14821205 31.10889006 -125.79629517 31.10595703 C-122.88411904 31.1012325 -119.97202352 31.10235735 -117.05984879 31.10773277 C-112.45429917 31.11533482 -107.84890527 31.1046957 -103.24337769 31.0905304 C-90.14678353 31.0527689 -77.05025942 31.03460273 -63.95361328 31.04614258 C-56.72104776 31.05235845 -49.48873309 31.0407809 -42.25622928 31.00969726 C-37.67869543 30.99103453 -33.10187162 30.99436892 -28.52434945 31.01386487 C-25.6745163 31.02074833 -22.82506788 31.00678646 -19.97530746 30.98691559 C-18.02609206 30.97946535 -16.07683121 30.9968146 -14.12768555 31.01490784 C-7.23925056 31.18859097 -7.23925056 31.18859097 -1.51559448 27.92951965 C1.17675114 23.92757441 1.38524768 22.55867068 0.71875 17.7265625 C-0.44329285 14.11854694 -0.44329285 14.11854694 -3.71875 12.9765625 C-6.96989238 12.312645 -10.22361945 12.21868217 -13.53125 12.0390625 C-18.47108379 11.64496297 -18.47108379 11.64496297 -21.09375 9.1640625 C-21.97772156 5.54781523 -21.3692783 3.67885989 -19.78125 0.3515625 C-14.52362875 -2.27724812 -5.6233703 -1.31106667 0 0 Z " fill="#682F29" transform="translate(187.78125,460.6484375)"/>
<path d="M0 0 C0.89425186 -0.00845947 1.78850372 -0.01691895 2.70985413 -0.02563477 C3.68343369 -0.01956207 4.65701324 -0.01348938 5.66009521 -0.00723267 C6.69146103 -0.01248962 7.72282684 -0.01774658 8.78544617 -0.02316284 C12.19921971 -0.03637923 15.61252774 -0.02761609 19.02630615 -0.01748657 C21.40039154 -0.01950745 23.77447631 -0.022419 26.14855957 -0.02618408 C31.12853902 -0.03061018 36.10835716 -0.02416931 41.08831787 -0.01016235 C47.4615686 0.00689227 53.83443929 -0.00288649 60.20767593 -0.02087975 C65.11312704 -0.03174153 70.0184887 -0.02825956 74.92394257 -0.02049637 C77.27300817 -0.01849906 79.62208197 -0.02093711 81.971138 -0.02793503 C85.26220557 -0.03558451 88.55266637 -0.02389405 91.84368896 -0.00723267 C92.8091716 -0.01330536 93.77465424 -0.01937805 94.76939392 -0.02563477 C102.96291153 0.05090908 109.80382101 1.84354755 115.9677124 7.51376343 C119.68625895 12.01367545 121.25832196 17.28997475 121.94818115 23.00595093 C120.93236593 30.84223976 117.79542228 37.36428146 111.51068115 42.38095093 C105.18759846 45.40051725 99.70864687 45.8721975 92.76068115 45.81845093 C91.82868896 45.8384314 90.89669678 45.85841187 89.9364624 45.8789978 C83.19747196 45.87416352 83.19747196 45.87416352 79.9052124 43.50985718 C78.51068115 41.38095093 78.51068115 41.38095093 77.94818115 38.88095093 C78.51068115 36.38095093 78.51068115 36.38095093 80.4520874 34.25204468 C85.26905873 31.30526401 90.04426272 31.90029476 95.5614624 31.9805603 C99.9572767 31.92171869 101.94239122 31.79405676 105.6005249 29.13485718 C107.63501777 26.20169261 108.10198416 25.21396607 107.57318115 21.75595093 C107.48165771 21.0005603 107.39013428 20.24516968 107.2958374 19.46688843 C106.25794299 16.70949729 104.9918019 15.92892093 102.51068115 14.38095093 C100.33459259 13.9370208 100.33459259 13.9370208 97.9944458 14.00241089 C97.0944133 13.99420822 96.1943808 13.98600555 95.26707458 13.97755432 C94.28721085 13.98370255 93.30734711 13.98985077 92.29779053 13.9961853 C91.25999954 13.99081253 90.22220856 13.98543976 89.15296936 13.97990417 C86.90001793 13.97012134 84.6470288 13.96718354 82.39405823 13.97026062 C78.83033195 13.97473116 75.26710419 13.96076003 71.70343018 13.94186401 C64.13918866 13.90505103 56.57499908 13.891364 49.01068115 13.88095093 C40.24630727 13.86888586 31.48217563 13.84742071 22.71791077 13.8009491 C19.20354805 13.7873427 15.68948875 13.7915563 12.17510986 13.7963562 C10.02459319 13.78701817 7.87407991 13.77685 5.72357178 13.76571655 C4.74370804 13.77186478 3.7638443 13.778013 2.75428772 13.78434753 C1.85425522 13.77614487 0.95422272 13.7679422 0.0269165 13.75949097 C-1.14334202 13.7584222 -1.14334202 13.7584222 -2.33724213 13.75733185 C-5.10705239 13.2729143 -6.47972206 12.32862307 -8.48931885 10.38095093 C-8.98931885 6.88095093 -8.98931885 6.88095093 -8.48931885 3.38095093 C-5.73842999 0.71762798 -3.7841639 0.00552298 0 0 Z " fill="#682F29" transform="translate(321.48931884765625,366.6190490722656)"/>
<path d="M0 0 C5.73653654 1.84624165 8.56401957 5.3718457 11.5234375 10.42578125 C13.44146545 14.96006662 13.08012826 20.0988453 11.796875 24.78515625 C9.45088037 30.25568356 5.870765 33.27402316 0.4140625 35.53125 C-3.85809281 36.23127521 -8.05847102 36.20509844 -12.38012695 36.16235352 C-13.64444046 36.16950882 -14.90875397 36.17666412 -16.21138 36.18403625 C-19.65754965 36.20245582 -23.10293974 36.18967662 -26.54907632 36.16994596 C-30.16181021 36.153497 -33.77449717 36.16238017 -37.38725281 36.16746521 C-43.44717806 36.17197635 -49.50679362 36.15617043 -55.56665039 36.12817383 C-62.57310093 36.09605367 -69.57899536 36.09616857 -76.58548576 36.1133886 C-83.33344583 36.12924183 -90.08120194 36.12253269 -96.82915306 36.10545158 C-99.69875708 36.09857865 -102.56819772 36.09961566 -105.43779945 36.10699654 C-109.43842218 36.11606844 -113.43818207 36.09214888 -117.4387207 36.06469727 C-119.22708344 36.07448608 -119.22708344 36.07448608 -121.05157471 36.08447266 C-122.68117882 36.06538597 -122.68117882 36.06538597 -124.34370422 36.0459137 C-125.76196739 36.04170331 -125.76196739 36.04170331 -127.20888233 36.03740788 C-129.5859375 35.53125 -129.5859375 35.53125 -131.42529583 33.69439602 C-133.06307232 30.64198993 -132.50903597 28.79759843 -131.5859375 25.53125 C-129.04252306 22.98783556 -128.14708583 23.27752835 -124.62013245 23.26623535 C-123.04485779 23.25382561 -123.04485779 23.25382561 -121.4377594 23.24116516 C-119.70235146 23.24263802 -119.70235146 23.24263802 -117.93188477 23.24414062 C-116.10988052 23.23389107 -116.10988052 23.23389107 -114.25106812 23.22343445 C-111.60618626 23.20981516 -108.96156987 23.19979198 -106.31668282 23.19572449 C-102.13600713 23.18902146 -97.95549375 23.16727953 -93.77488708 23.14318848 C-84.89944187 23.0941754 -76.0239623 23.06188494 -67.1484375 23.03125 C-57.57089854 22.99818262 -47.9934229 22.96228513 -38.41598171 22.90711927 C-34.25876844 22.88374624 -30.10166771 22.87002356 -25.94439518 22.86362457 C-22.75268557 22.85630108 -19.56104977 22.836288 -16.36938477 22.81835938 C-15.21447037 22.81934128 -14.05955597 22.82032318 -12.86964417 22.82133484 C-11.81664124 22.81306168 -10.76363831 22.80478851 -9.6787262 22.79626465 C-8.76229623 22.79333153 -7.84586626 22.79039841 -6.90166569 22.7873764 C-4.31174644 22.68058337 -4.31174644 22.68058337 -1.5859375 20.53125 C-1.33577877 16.94767759 -1.33577877 16.94767759 -1.5859375 13.53125 C-3.37451172 13.47517578 -3.37451172 13.47517578 -5.19921875 13.41796875 C-6.7656565 13.35230968 -8.33206134 13.28586232 -9.8984375 13.21875 C-11.07696289 13.18491211 -11.07696289 13.18491211 -12.27929688 13.15039062 C-13.03662109 13.11494141 -13.79394531 13.07949219 -14.57421875 13.04296875 C-15.27071533 13.01678467 -15.96721191 12.99060059 -16.68481445 12.96362305 C-19.15550438 12.40171322 -20.06726569 11.5378485 -21.5859375 9.53125 C-22.0234375 6.03125 -22.0234375 6.03125 -21.5859375 2.53125 C-16.6238376 -2.81254989 -6.62416044 -1.20075416 0 0 Z " fill="#672E29" transform="translate(455.5859375,310.46875)"/>
<path d="M0 0 C1.37284401 -0.01702469 1.37284401 -0.01702469 2.77342224 -0.03439331 C4.27654968 -0.02999741 4.27654968 -0.02999741 5.81004333 -0.0255127 C7.39594521 -0.03821701 7.39594521 -0.03821701 9.0138855 -0.05117798 C12.52084791 -0.07463836 16.0273735 -0.0755675 19.53440857 -0.07434082 C21.97239356 -0.08144011 24.41037687 -0.08913876 26.84835815 -0.09741211 C31.96714411 -0.11088 37.08577583 -0.1124167 42.20457458 -0.10656738 C48.74933577 -0.10068828 55.29335078 -0.13117887 61.83796787 -0.17168427 C66.87819371 -0.19760554 71.9182414 -0.20043425 76.9585247 -0.1967926 C79.37015079 -0.19848163 81.78178529 -0.20810312 84.19334602 -0.22593689 C87.57779483 -0.24819827 90.96075363 -0.23838455 94.34519958 -0.2208252 C95.33311493 -0.23408844 96.32103027 -0.24735168 97.33888245 -0.26101685 C104.36215027 -0.17681888 109.61655244 1.5725902 115.53050232 5.39440918 C117.78440857 7.74597168 117.78440857 7.74597168 119.09300232 10.01940918 C119.54804138 10.7747998 120.00308044 11.53019043 120.47190857 12.30847168 C123.29274232 17.86686734 123.47007962 23.85118393 121.88206482 29.83972168 C119.34728058 36.23084433 115.64446655 40.06375133 109.71018982 43.42565918 C104.43045831 45.66178076 98.93284846 45.7289232 93.28050232 45.83190918 C92.49957214 45.85430664 91.71864197 45.8767041 90.91404724 45.89978027 C86.98747097 45.88376203 84.9378904 45.63518598 81.48362732 43.59362793 C79.53050232 41.39440918 79.53050232 41.39440918 79.53050232 37.76940918 C80.53050232 34.39440918 80.53050232 34.39440918 83.53050232 32.39440918 C85.53587341 32.12316895 85.53587341 32.12316895 87.80393982 32.08581543 C88.62893982 32.06067871 89.45393982 32.03554199 90.30393982 32.00964355 C92.03043044 31.97464712 93.75700053 31.94336262 95.48362732 31.91589355 C100.2784705 31.76278719 103.65121191 31.53957093 107.53050232 28.39440918 C109.08074696 25.2939199 108.82042247 22.815467 108.53050232 19.39440918 C106.31784512 15.73119845 106.31784512 15.73119845 102.66781712 13.77022362 C100.42943558 13.37663812 98.35591482 13.26395405 96.08346558 13.25637817 C94.75649155 13.24819817 94.75649155 13.24819817 93.40270996 13.23985291 C92.43997665 13.23881058 91.47724335 13.23776825 90.4853363 13.23669434 C89.46544617 13.23161362 88.44555603 13.2265329 87.39476013 13.22129822 C85.18108414 13.21060162 82.96739737 13.20197866 80.75370598 13.19517899 C77.25338956 13.18339354 73.7531967 13.16394354 70.25292969 13.14205933 C60.30130596 13.08041624 50.34969624 13.02630989 40.39793396 12.99304199 C34.31133386 12.97214622 28.22496119 12.93688908 22.13849068 12.89228439 C19.81602204 12.87808892 17.4935132 12.869394 15.17100334 12.86623001 C11.92918295 12.8613443 8.68797135 12.83824842 5.4462738 12.81091309 C3.9991375 12.81542229 3.9991375 12.81542229 2.52276611 12.82002258 C1.20002182 12.8033831 1.20002182 12.8033831 -0.14944458 12.78640747 C-0.91579003 12.78309732 -1.68213549 12.77978718 -2.47170353 12.77637672 C-5.02748933 12.28772416 -5.91705603 11.45411896 -7.46949768 9.39440918 C-8.11213026 4.25334854 -8.11213026 4.25334854 -6.22540379 1.73155975 C-4.00039598 0.03718073 -2.77954699 0.0130297 0 0 Z " fill="#672E29" transform="translate(228.46949768066406,417.6055908203125)"/>
<path d="M0 0 C1.38980072 -0.01485695 1.38980072 -0.01485695 2.80767822 -0.03001404 C3.82225601 -0.02551239 4.8368338 -0.02101074 5.88215637 -0.01637268 C7.48750748 -0.02666756 7.48750748 -0.02666756 9.12528992 -0.03717041 C12.67434345 -0.0555171 16.22295802 -0.05158816 19.77204895 -0.0459137 C22.23724512 -0.05047311 24.70244002 -0.05577795 27.16763306 -0.0617981 C32.34189506 -0.07074572 37.51600288 -0.06828885 42.69026184 -0.05836487 C49.31359535 -0.04689844 55.93639389 -0.06704321 62.5596571 -0.09628201 C67.65469739 -0.1146556 72.74960994 -0.11434873 77.84467506 -0.10864449 C80.28585368 -0.10849128 82.72704097 -0.11453501 85.1681881 -0.12693596 C88.5888066 -0.14185778 92.00844302 -0.13115725 95.42903137 -0.11402893 C96.43348801 -0.1236969 97.43794464 -0.13336487 98.47283936 -0.14332581 C106.28193584 -0.0616832 111.65832268 1.62960603 117.2915802 7.13768005 C121.35579046 13.17593529 123.51981136 19.05979218 122.4790802 26.38768005 C120.98187662 32.53898157 118.17871339 37.77070025 112.88728333 41.51365662 C106.76341321 44.93814588 101.06752382 44.98799662 94.1665802 44.88768005 C93.08312317 44.9031488 91.99966614 44.91861755 90.88337708 44.93455505 C89.84632629 44.9293988 88.80927551 44.92424255 87.74079895 44.91893005 C86.33253845 44.91216248 86.33253845 44.91216248 84.89582825 44.90525818 C82.4790802 44.38768005 82.4790802 44.38768005 80.63850403 42.54978943 C79.00202761 39.49806587 79.55631133 37.65286219 80.4790802 34.38768005 C82.84869414 32.01806611 83.39504556 32.12458131 86.6197052 32.04393005 C87.44341614 32.01428162 88.26712708 31.98463318 89.11579895 31.9540863 C90.40937317 31.92121521 90.40937317 31.92121521 91.7290802 31.88768005 C99.79230857 31.70484349 99.79230857 31.70484349 107.4790802 29.38768005 C108.51465317 27.67387389 108.51465317 27.67387389 108.4790802 25.38768005 C108.5822052 24.23268005 108.6853302 23.07768005 108.7915802 21.88768005 C108.79712698 18.34502635 108.79712698 18.34502635 106.6040802 16.01268005 C103.57355513 13.69521971 101.94613694 13.26188437 98.19662476 13.24964905 C97.29789642 13.24419571 96.39916809 13.23874237 95.47320557 13.23312378 C93.99026756 13.23156029 93.99026756 13.23156029 92.47737122 13.22996521 C91.43826599 13.22488449 90.39916077 13.21980377 89.3285675 13.21456909 C87.06683769 13.20384999 84.80509716 13.19523588 82.54335213 13.18844986 C78.96758541 13.17669191 75.39194117 13.15724804 71.81622314 13.1353302 C61.64781239 13.07360267 51.47941401 13.01960648 41.31086731 12.98631287 C35.09689822 12.96541601 28.88315182 12.93015361 22.66930962 12.88555527 C20.29660087 12.87135581 17.92385272 12.86266399 15.55110359 12.85950089 C12.23722509 12.85461496 8.92394206 12.831517 5.61018372 12.80418396 C4.62358261 12.80719009 3.63698151 12.81019623 2.6204834 12.81329346 C1.26816116 12.79665398 1.26816116 12.79665398 -0.11148071 12.77967834 C-0.89517249 12.7763682 -1.67886427 12.77305805 -2.48630428 12.7696476 C-5.06861205 12.28485932 -5.95759601 11.47111374 -7.5209198 9.38768005 C-8.16329089 4.24871137 -8.16329089 4.24871137 -6.28003979 1.72441006 C-4.03941244 0.02178953 -2.79742501 0.00843988 0 0 Z " fill="#672E29" transform="translate(368.5209197998047,427.61231994628906)"/>
<path d="M0 0 C1.22818451 -0.00983414 2.45636902 -0.01966827 3.72177124 -0.02980042 C5.07989779 -0.02042872 6.43802159 -0.01064942 7.79614258 -0.00050354 C9.22865327 -0.0042872 10.6611603 -0.00978763 12.09365845 -0.01687622 C15.98215138 -0.03084228 19.8702024 -0.01965329 23.75867081 -0.00316501 C27.82739869 0.01068187 31.89610082 0.00422583 35.96484375 0.0007019 C42.7976799 -0.00200051 49.63034041 0.011478 56.46313477 0.03465271 C64.36348853 0.06126272 72.26354863 0.06300971 80.16393185 0.05126435 C87.76294145 0.04048613 95.36184478 0.04667396 102.96084595 0.06081963 C106.19522614 0.06657907 109.42952857 0.06649709 112.66390991 0.06175423 C116.47250286 0.0569828 120.28077413 0.06709266 124.08930588 0.08870888 C125.48731781 0.09427471 126.88536067 0.09474388 128.28337479 0.08975601 C130.19103958 0.08380323 132.09873561 0.09814155 134.00634766 0.11352539 C135.60800529 0.11717023 135.60800529 0.11717023 137.24201965 0.12088871 C140.39829033 0.55562813 141.78514973 1.23220252 144.00317383 3.50120544 C144.50317383 7.00120544 144.50317383 7.00120544 144.00317383 10.50120544 C141.78472828 12.77120277 140.39978575 13.44697802 137.24201965 13.87872887 C136.17424789 13.87985994 135.10647614 13.88099102 134.00634766 13.88215637 C132.77816315 13.89061584 131.54997864 13.89907532 130.28457642 13.90779114 C128.92645131 13.90195843 127.56832751 13.89581394 126.21020508 13.88938904 C124.77769572 13.89345482 123.34518949 13.89879675 121.91268921 13.90531921 C118.02427357 13.91899793 114.13609667 13.91369196 110.24767685 13.90418196 C106.17894598 13.89658821 102.11023558 13.90363018 98.04150391 13.90834045 C91.20870289 13.91379884 84.37599914 13.90660424 77.54321289 13.89231873 C69.6428679 13.87599201 61.74275517 13.88128046 53.84241581 13.89779794 C47.06014295 13.91141047 40.27794003 13.91333363 33.49565792 13.90548193 C29.4445458 13.90080412 25.39354286 13.90018351 21.34243774 13.9100914 C17.53386179 13.91875543 13.72558537 13.91274971 9.91704178 13.89540863 C8.51902387 13.89144074 7.12098077 13.89258304 5.72297287 13.89919662 C3.81532438 13.90738936 1.90762083 13.89529566 0 13.88215637 C-1.06777176 13.8810253 -2.13554352 13.87989422 -3.235672 13.87872887 C-6.38153 13.44860617 -7.76609603 12.73642809 -9.99682617 10.50120544 C-10.49682617 7.56370544 -10.49682617 7.56370544 -9.99682617 4.50120544 C-6.97362002 0.55881278 -4.88010229 0.0009565 0 0 Z " fill="#682F29" transform="translate(151.996826171875,382.49879455566406)"/>
<path d="M0 0 C1.00090668 -0.01029488 1.00090668 -0.01029488 2.02203369 -0.02079773 C4.22503041 -0.03907514 6.42731487 -0.03522429 8.63037109 -0.02954102 C10.17011749 -0.03410526 11.70986185 -0.03941156 13.24960327 -0.04542542 C16.47931174 -0.05436049 19.70877306 -0.0519324 22.93847656 -0.04199219 C27.05402489 -0.03055336 31.16870868 -0.05063257 35.28414345 -0.07990932 C38.46716643 -0.09837206 41.64998661 -0.09795812 44.83304977 -0.0922718 C46.34873026 -0.09211954 47.86442535 -0.09808469 49.38005447 -0.11056328 C67.93073491 -0.24168211 67.93073491 -0.24168211 75.17422485 6.05055237 C79.77304513 10.83253002 81.94202858 16.31690263 82.65380859 22.84155273 C81.85967572 30.38581503 79.89348904 35.83757077 74.13818359 40.96264648 C67.67562509 45.97248701 61.4896078 45.78237745 53.60693359 45.90014648 C50.27880859 45.40405273 50.27880859 45.40405273 48.31396484 43.57202148 C46.85368963 40.51370924 47.37300314 38.60921049 48.27880859 35.40405273 C50.9722243 32.71063703 52.83954151 32.97820144 56.59130859 32.59155273 C62.04119893 31.93269559 62.04119893 31.93269559 66.59130859 29.15405273 C68.60931115 25.86545598 68.84398268 24.198793 68.27880859 20.40405273 C67.43868405 17.88367911 66.84032478 16.77406072 64.62097168 15.31163025 C61.51035894 14.106282 58.89013788 14.14464929 55.55419922 14.1328125 C54.55346626 14.12497238 54.55346626 14.12497238 53.53251648 14.11697388 C52.08824508 14.10675598 50.64393708 14.10095733 49.19963074 14.09909248 C46.91290147 14.09542343 44.62660379 14.0786836 42.33996582 14.05833435 C35.84033223 14.00296613 29.34063597 13.97221411 22.84082031 13.94775391 C18.86143149 13.93187728 14.88235103 13.90166089 10.90312195 13.86298943 C9.38811008 13.85134369 7.87304308 13.84540911 6.35798645 13.8453083 C4.23946928 13.84511619 2.12180293 13.82684778 0.00341797 13.8046875 C-1.20141235 13.79961685 -2.40624268 13.7945462 -3.64758301 13.7893219 C-6.99141884 13.3701804 -8.41102167 12.83288628 -10.72119141 10.40405273 C-11.22119141 6.90405273 -11.22119141 6.90405273 -10.72119141 3.40405273 C-7.47658349 -0.00633471 -4.55853915 0.02044812 0 0 Z " fill="#682E29" transform="translate(84.72119140625,410.595947265625)"/>
<path d="M0 0 C14.78033219 4.75788947 27.24759386 10.82793936 35.82592773 24.38598633 C42.37579743 37.46939188 44.42746878 51.83269545 39.76342773 65.88598633 C37.31625826 71.9039552 34.21884233 76.63174976 29.82592773 81.38598633 C29.29225586 82.00989258 28.75858398 82.63379883 28.20874023 83.27661133 C22.50523243 89.55319887 14.79129527 93.62114801 6.82592773 96.38598633 C3.63842773 96.19848633 3.63842773 96.19848633 0.82592773 95.38598633 C-1.32909757 92.15344837 -1.64263361 91.1344771 -1.17407227 87.38598633 C1.01890482 84.62730496 3.22739756 83.70322041 6.51342773 82.57348633 C16.57049181 78.69412391 22.60180415 72.29687956 27.70092773 62.94848633 C30.68912983 53.89441291 30.06053532 41.57478177 26.26733398 32.87817383 C18.60482662 19.62971936 6.47930866 15.03942372 -7.33813477 10.46411133 C-10.17407227 9.38598633 -10.17407227 9.38598633 -12.17407227 7.38598633 C-12.50361659 4.28826968 -12.62741827 2.2126761 -11.11157227 -0.55151367 C-7.64488049 -2.45260271 -3.64873807 -1.03049705 0 0 Z " fill="#F3F2F2" transform="translate(431.174072265625,170.614013671875)"/>
<path d="M0 0 C1.63684753 -0.01418472 1.63684753 -0.01418472 3.3067627 -0.02865601 C5.07400696 -0.01954697 5.07400696 -0.01954697 6.87695312 -0.01025391 C8.69108704 -0.01455917 8.69108704 -0.01455917 10.54187012 -0.01895142 C13.10067208 -0.02099426 15.65948957 -0.01544908 18.21826172 -0.00292969 C22.14260667 0.01311981 26.06592159 -0.00277203 29.99023438 -0.02197266 C32.47330957 -0.01999026 34.95638413 -0.01614668 37.43945312 -0.01025391 C38.61761597 -0.0163266 39.79577881 -0.02239929 41.00964355 -0.02865601 C42.10087524 -0.01919952 43.19210693 -0.00974304 44.31640625 0 C45.27776489 0.00238678 46.23912354 0.00477356 47.22961426 0.00723267 C49.65820312 0.38818359 49.65820312 0.38818359 51.47253418 1.68978882 C53.43033348 4.49421084 52.95793116 7.09117516 52.65820312 10.38818359 C50.03405557 13.01233115 48.8883925 12.64116456 45.23046875 12.64697266 C44.09589233 12.65327698 42.96131592 12.6595813 41.7923584 12.66607666 C39.94704529 12.66000397 39.94704529 12.66000397 38.06445312 12.65380859 C36.80685181 12.65572205 35.54925049 12.6576355 34.25354004 12.65960693 C31.59027437 12.66097008 28.92737383 12.65826366 26.26416016 12.64892578 C22.84748918 12.63753111 19.4311324 12.64409107 16.01447296 12.65607071 C12.76028833 12.66502813 9.50614185 12.65875987 6.25195312 12.65380859 C5.02174438 12.65785706 3.79153564 12.66190552 2.52404785 12.66607666 C0.82218323 12.65662018 0.82218323 12.65662018 -0.9140625 12.64697266 C-1.91618774 12.64538147 -2.91831299 12.64379028 -3.95080566 12.64215088 C-6.34179688 12.38818359 -6.34179688 12.38818359 -8.34179688 10.38818359 C-8.9048402 4.19470707 -8.9048402 4.19470707 -7.15612793 1.68978882 C-4.68491129 -0.08306762 -3.02841354 0.00751869 0 0 Z " fill="#672E29" transform="translate(242.341796875,333.61181640625)"/>
<path d="M0 0 C12.47668426 1.95515085 22.37623972 10.78683503 29.6875 20.6875 C31.66859354 23.90749066 31.93722638 24.98276205 32 28.9375 C30.9375 32 30.9375 32 27.9375 34 C25.125 34.1875 25.125 34.1875 21.9375 33 C20.20032286 30.86362306 18.8019534 28.63040038 17.3671875 26.28125 C12.59033595 18.65916993 4.98564015 14.18298268 -3.14453125 10.89453125 C-5.0625 10 -5.0625 10 -7.0625 8 C-7.42542595 5.16917761 -7.55727459 3.64900988 -5.796875 1.33984375 C-3.61395922 -0.34650786 -2.70966759 -0.31473453 0 0 Z " fill="#F3F2F2" transform="translate(393.0625,102)"/>
</svg>
